<svg width="140" height="155" viewBox="0 0 140 155" fill="none" xmlns="http://www.w3.org/2000/svg">
<path d="M103 149V155H37V149H103ZM134 118V37C134 19.8792 120.121 6 103 6H37C19.8792 6 6 19.8792 6 37V118C6 135.121 19.8792 149 37 149V155L36.0449 154.988C16.0518 154.482 0 138.115 0 118V37C8.87924e-07 16.8848 16.0518 0.518292 36.0449 0.0117188L37 0H103C123.435 0 140 16.5655 140 37V118L139.988 118.955C139.482 138.948 123.115 155 103 155V149C120.121 149 134 135.121 134 118Z" fill="black"/>
<path d="M103 149V155H37V149H103ZM134 118V37C134 19.8792 120.121 6 103 6H37C19.8792 6 6 19.8792 6 37V118C6 135.121 19.8792 149 37 149V155L36.0449 154.988C16.0518 154.482 0 138.115 0 118V37C8.87924e-07 16.8848 16.0518 0.518292 36.0449 0.0117188L37 0H103C123.435 0 140 16.5655 140 37V118L139.988 118.955C139.482 138.948 123.115 155 103 155V149C120.121 149 134 135.121 134 118Z" fill="black" fill-opacity="0.2"/>
<path d="M43.2842 113V43.1819H72.3978C77.6251 43.1819 82.0001 43.9205 85.5228 45.3978C89.0683 46.8751 91.7274 48.9432 93.5001 51.6023C95.2955 54.2614 96.1933 57.341 96.1933 60.841C96.1933 63.5001 95.6365 65.8751 94.5228 67.966C93.4092 70.0342 91.8751 71.7501 89.9205 73.1137C87.966 74.4773 85.7046 75.4319 83.1365 75.9773V76.6592C85.9546 76.7955 88.5569 77.5569 90.9433 78.9432C93.3524 80.3296 95.2842 82.2614 96.7387 84.7387C98.1933 87.1932 98.9205 90.1023 98.9205 93.466C98.9205 97.216 97.966 100.568 96.0569 103.523C94.1478 106.455 91.3865 108.773 87.7728 110.477C84.1592 112.159 79.7728 113 74.6137 113H43.2842ZM60.1592 99.3978H70.591C74.2501 99.3978 76.9433 98.7046 78.6705 97.3183C80.4205 95.9319 81.2955 94.0001 81.2955 91.5228C81.2955 89.7273 80.8751 88.1819 80.0342 86.8864C79.1933 85.5682 78.0001 84.5569 76.4546 83.8523C74.9092 83.1251 73.0569 82.7614 70.8978 82.7614H60.1592V99.3978ZM60.1592 71.8864H69.5001C71.341 71.8864 72.9774 71.5796 74.4092 70.966C75.841 70.3523 76.9546 69.466 77.7501 68.3069C78.5683 67.1478 78.9774 65.7501 78.9774 64.1137C78.9774 61.7728 78.1478 59.9319 76.4887 58.591C74.8296 57.2501 72.591 56.5796 69.7728 56.5796H60.1592V71.8864Z" fill="black"/>
<path d="M98.9209 93.4658C98.9209 90.1022 98.1928 87.1928 96.7383 84.7383C95.3748 82.4162 93.5919 80.5735 91.3896 79.21L90.9434 78.9434C88.5571 77.5571 85.9548 76.7956 83.1367 76.6592V75.9775C85.7048 75.4321 87.9664 74.4769 89.9209 73.1133C91.8752 71.7497 93.4089 70.0338 94.5225 67.9658C95.5665 66.0055 96.1213 63.7956 96.1865 61.3359L96.1934 60.8408C96.1933 57.3409 95.2954 54.2616 93.5 51.6025C91.7273 48.9434 89.0679 46.8747 85.5225 45.3975C81.9998 43.9203 77.6246 43.1816 72.3975 43.1816V38.1816C78.0546 38.1816 83.1317 38.9756 87.4453 40.7822C91.7058 42.5574 95.2215 45.1834 97.6436 48.8047L97.8652 49.1396C100.118 52.6199 101.193 56.5759 101.193 60.8408C101.193 64.2178 100.48 67.4171 98.9355 70.3164L98.9307 70.3262L98.9248 70.3359C97.8641 72.3057 96.5107 74.0399 94.8867 75.5273C97.4047 77.265 99.4667 79.5091 101.051 82.207H101.05C103.031 85.5574 103.921 89.3741 103.921 93.4658C103.921 98.1119 102.723 102.419 100.257 106.236L100.252 106.244L100.247 106.251C97.7633 110.065 94.2366 112.956 89.9062 114.999L89.8828 115.011C85.4439 117.077 80.295 118 74.6133 118H38.2842V38.1816H72.3975V43.1816H43.2842V113H74.6133C79.4498 113 83.6077 112.261 87.0859 110.783L87.7725 110.478C91.3861 108.773 94.1475 106.454 96.0566 103.522C97.8464 100.753 98.7974 97.6332 98.9092 94.1641L98.9209 93.4658ZM76.2959 91.5225C76.2959 90.533 76.0736 89.9685 75.8398 89.6084L75.8184 89.5752C75.5414 89.1413 75.1266 88.7414 74.3809 88.4014L74.3525 88.3896L74.3252 88.376C73.5974 88.0336 72.5086 87.7617 70.8975 87.7617H65.1592V94.3975H70.5908V99.3975H60.1592V82.7617H70.8975C73.0564 82.7617 74.9087 83.1253 76.4541 83.8525C77.9996 84.5571 79.1933 85.5685 80.0342 86.8867C80.8749 88.1821 81.2959 89.7273 81.2959 91.5225L81.2852 91.9805C81.1827 94.2391 80.3115 96.0186 78.6709 97.3184L78.335 97.5703C76.6025 98.7886 74.021 99.3975 70.5908 99.3975V94.3975C73.7953 94.3975 75.1178 93.7586 75.541 93.4189L75.5527 93.4092L75.5654 93.3994C75.9763 93.0739 76.2959 92.6632 76.2959 91.5225ZM73.9775 64.1133C73.9775 63.1153 73.7058 62.7706 73.3457 62.4795C72.8264 62.0598 71.816 61.5791 69.7725 61.5791H65.1592V66.8867H69.5V71.8867H60.1592V56.5791H69.7725C72.5905 56.5791 74.8292 57.2501 76.4883 58.5908C78.1473 59.9317 78.9775 61.7725 78.9775 64.1133L78.9727 64.418C78.9247 65.9239 78.5169 67.2201 77.75 68.3066C76.9546 69.4657 75.8409 70.3522 74.4092 70.9658L74.1387 71.0771C72.7723 71.6166 71.226 71.8867 69.5 71.8867V66.8867C70.785 66.8867 71.7325 66.6731 72.4395 66.3701C73.098 66.0879 73.4243 65.7728 73.627 65.4775L73.6465 65.4502L73.665 65.4238C73.7998 65.2329 73.9775 64.8808 73.9775 64.1133Z" fill="#FFFEFE"/>
</svg>
