<svg width="140" height="155" viewBox="0 0 140 155" fill="none" xmlns="http://www.w3.org/2000/svg">
<path d="M103 149V155H37V149H103ZM134 118V37C134 19.8792 120.121 6 103 6H37C19.8792 6 6 19.8792 6 37V118C6 135.121 19.8792 149 37 149V155L36.0449 154.988C16.0518 154.482 0 138.115 0 118V37C8.87924e-07 16.8848 16.0518 0.518292 36.0449 0.0117188L37 0H103C123.435 0 140 16.5655 140 37V118L139.988 118.955C139.482 138.948 123.115 155 103 155V149C120.121 149 134 135.121 134 118Z" fill="black"/>
<path d="M119.398 71.3296L117.284 84.1819H21.2842L23.3978 71.3296H119.398Z" fill="black"/>
<path d="M125.287 66.3291L121.529 89.1816H15.3945L19.1533 66.3291H125.287ZM23.3975 71.3291L21.2842 84.1816H117.284L119.397 71.3291H23.3975Z" fill="#FFFEFE"/>
</svg>
