<svg xmlns="http://www.w3.org/2000/svg" xmlns:xlink="http://www.w3.org/1999/xlink" viewBox="0 0 430 430" width="430" height="430" preserveAspectRatio="xMidYMid meet" style="width: 100%; height: 100%; transform: translate3d(0px, 0px, 0px); content-visibility: visible;"><defs><clipPath id="__lottie_element_2"><rect width="430" height="430" x="0" y="0"/></clipPath><clipPath id="__lottie_element_4"><path d="M0,0 L430,0 L430,430 L0,430z"/></clipPath><g id="__lottie_element_14"><g transform="matrix(0.7070999145507812,-0.7070999145507812,0.7070999145507812,0.7070999145507812,215,215)" opacity="1" style="display: block;"><path fill="rgb(255,0,0)" fill-opacity="1" d=" M0,-167.5 C92.44325256347656,-167.5 167.5,-92.44325256347656 167.5,0 C167.5,92.44325256347656 92.44325256347656,167.5 0,167.5 C-92.44325256347656,167.5 -167.5,92.44325256347656 -167.5,0 C-167.5,-92.44325256347656 -92.44325256347656,-167.5 0,-167.5z"/><g opacity="1" transform="matrix(1,0,0,1,0,0)"/></g></g><mask id="__lottie_element_14_1" mask-type="alpha"><use xmlns:ns1="http://www.w3.org/1999/xlink" ns1:href="#__lottie_element_14"/></mask></defs><g clip-path="url(#__lottie_element_2)"><g clip-path="url(#__lottie_element_4)" transform="matrix(1,0,0,1,0,0)" opacity="1" style="display: block;"><g transform="matrix(1,0,0,1,215.10699462890625,215)" opacity="1" style="display: block;"/><g mask="url(#__lottie_element_14_1)" style="display: block;"><g transform="matrix(0.7599999904632568,0,0,0.7599999904632568,210.10699462890625,249.5)" opacity="1"><g opacity="1" transform="matrix(1,0,0,1,0,0)"><path stroke-linecap="butt" stroke-linejoin="round" fill-opacity="0" class="secondary" stroke="rgb(0,0,0)" stroke-opacity="1" stroke-width="23.4" d=" M92.0719985961914,-111.06700134277344 C92.0719985961914,-111.06700134277344 92.0719985961914,-183.6020050048828 92.0719985961914,-183.6020050048828 C92.0719985961914,-183.6020050048828 40.73400115966797,-183.6020050048828 40.73400115966797,-183.6020050048828 C-7.306000232696533,-183.6020050048828 -46.25,-146.39500427246094 -46.25,-98.3550033569336 C-46.25,-98.3550033569336 -46.25,-38.90299987792969 -46.25,-38.90299987792969 C-46.25,-38.90299987792969 -98.67900085449219,-38.90299987792969 -98.67900085449219,-38.90299987792969 C-98.67900085449219,-38.90299987792969 -98.67900085449219,33.611000061035156 -98.67900085449219,33.611000061035156 C-98.67900085449219,33.611000061035156 -46.25,33.611000061035156 -46.25,33.611000061035156 C-46.25,33.611000061035156 -46.25,185 -46.25,185 C-46.25,185 26.429000854492188,185 26.429000854492188,185 C26.429000854492188,185 26.429000854492188,33.611000061035156 26.429000854492188,33.611000061035156 C26.429000854492188,33.611000061035156 78.94000244140625,33.611000061035156 78.94000244140625,33.611000061035156 C78.94000244140625,33.611000061035156 98.76200103759766,-38.90299987792969 98.76200103759766,-38.90299987792969 C98.76200103759766,-38.90299987792969 26.429000854492188,-38.90299987792969 26.429000854492188,-38.90299987792969 C26.429000854492188,-38.90299987792969 26.167999267578125,-91.00599670410156 26.167999267578125,-91.00599670410156 C26.167999267578125,-102.19599914550781 35.23899841308594,-111.16400146484375 46.42900085449219,-111.16400146484375 C46.42900085449219,-111.16400146484375 92.0719985961914,-111.06700134277344 92.0719985961914,-111.06700134277344z"/></g></g></g><g transform="matrix(0.7070999145507812,-0.7070999145507812,0.7070999145507812,0.7070999145507812,215,215)" opacity="1" style="display: block;"><g opacity="1" transform="matrix(1,0,0,1,0,0)"><path stroke-linecap="round" stroke-linejoin="round" fill-opacity="0" class="primary" stroke="rgb(0,0,0)" stroke-opacity="1" stroke-width="18" d=" M0,-167.5 C92.44325256347656,-167.5 167.5,-92.44325256347656 167.5,0 C167.5,92.44325256347656 92.44325256347656,167.5 0,167.5 C-92.44325256347656,167.5 -167.5,92.44325256347656 -167.5,0 C-167.5,-92.44325256347656 -92.44325256347656,-167.5 0,-167.5z"/></g></g></g></g></svg>