<?xml version="1.0" encoding="UTF-8"?>
<svg version="1.1" xmlns="http://www.w3.org/2000/svg" width="192" height="192">
<path d="M0 0 C2.02107544 0.02149041 4.03859952 0.00003039 6.05957031 -0.02539062 C23.12533209 -0.06129407 45.40935677 5.40991671 58.09472656 17.49804688 C58.73023438 18.16578125 59.36574219 18.83351563 60.02050781 19.52148438 C61.28149963 20.63687714 62.55240243 21.74116634 63.83300781 22.83398438 C69.32488513 27.61888495 74.43647567 32.10795316 78.02050781 38.52148438 C78.68050781 38.85148437 79.34050781 39.18148437 80.02050781 39.52148438 C81.2199763 41.67225545 82.32692171 43.80690322 83.39550781 46.02148438 C83.70786377 46.662229 84.02021973 47.30297363 84.34204102 47.96313477 C84.96251098 49.24161546 85.57984971 50.52162116 86.19384766 51.80322266 C86.8579039 53.18350258 87.53986711 54.55516066 88.22753906 55.92382812 C93.6885497 67.25923267 95.69903515 79.01606077 95.54199219 91.50097656 C95.52050178 93.52205201 95.5419618 95.53957609 95.56738281 97.56054688 C95.60328626 114.62630865 90.13207548 136.91033333 78.04394531 149.59570312 C77.37621094 150.23121094 76.70847656 150.86671875 76.02050781 151.52148438 C74.90511505 152.78247619 73.80082584 154.053379 72.70800781 155.33398438 C67.92310724 160.8258617 63.43403902 165.93745223 57.02050781 169.52148438 C56.69050781 170.18148437 56.36050781 170.84148437 56.02050781 171.52148438 C53.86973674 172.72095286 51.73508896 173.82789827 49.52050781 174.89648438 C48.87976318 175.20884033 48.23901855 175.52119629 47.57885742 175.84301758 C46.30037672 176.46348754 45.02037103 177.08082627 43.73876953 177.69482422 C42.35848961 178.35888046 40.98683153 179.04084368 39.61816406 179.72851562 C28.28275952 185.18952626 16.52593142 187.20001172 4.04101562 187.04296875 C2.01994018 187.02147834 0.0024161 187.04293836 -2.01855469 187.06835938 C-19.08431646 187.10426282 -41.36834114 181.63305204 -54.05371094 169.54492188 C-54.68921875 168.8771875 -55.32472656 168.20945313 -55.97949219 167.52148438 C-57.24048401 166.40609161 -58.51138681 165.30180241 -59.79199219 164.20898438 C-65.28386951 159.4240838 -70.39546004 154.93501559 -73.97949219 148.52148438 C-74.63949219 148.19148437 -75.29949219 147.86148438 -75.97949219 147.52148438 C-77.17896067 145.3707133 -78.28590608 143.23606553 -79.35449219 141.02148438 C-79.66684814 140.38073975 -79.9792041 139.73999512 -80.30102539 139.07983398 C-80.92149535 137.80135329 -81.53883409 136.52134759 -82.15283203 135.23974609 C-82.81688827 133.85946617 -83.49885149 132.48780809 -84.18652344 131.11914062 C-89.64753407 119.78373608 -91.65801953 108.02690798 -91.50097656 95.54199219 C-91.47948615 93.52091674 -91.50094617 91.50339266 -91.52636719 89.48242188 C-91.56227064 72.4166601 -86.09105985 50.13263542 -74.00292969 37.44726562 C-73.33519531 36.81175781 -72.66746094 36.17625 -71.97949219 35.52148438 C-70.86409942 34.26049256 -69.75981022 32.98958975 -68.66699219 31.70898438 C-63.88209161 26.21710705 -59.3930234 21.10551652 -52.97949219 17.52148438 C-52.64949219 16.86148437 -52.31949219 16.20148437 -51.97949219 15.52148438 C-49.82872111 14.32201589 -47.69407334 13.21507048 -45.47949219 12.14648438 C-44.83874756 11.83412842 -44.19800293 11.52177246 -43.5378418 11.19995117 C-42.2593611 10.57948121 -40.9793554 9.96214248 -39.69775391 9.34814453 C-38.31747398 8.68408829 -36.94581591 8.00212507 -35.57714844 7.31445312 C-24.2417439 1.85344249 -12.48491579 -0.15704297 0 0 Z " fill="#F2F7FA" transform="translate(93.9794921875,2.478515625)"/>
<path d="M0 0 C0.88171875 0.46277344 1.7634375 0.92554688 2.671875 1.40234375 C9.24232149 5.08546671 14.64342498 9.73152655 20 15 C20.70125 15.68835938 21.4025 16.37671875 22.125 17.0859375 C36.44544214 32.13358959 42.66688938 51.59112814 43.25 72 C43.19709468 73.66790984 43.11002978 75.33488269 43 77 C42.93167969 78.17691406 42.86335937 79.35382813 42.79296875 80.56640625 C40.97943097 103.37611379 28.3984701 122.51152912 11.296875 137.1953125 C1.08842174 145.21624006 -11.8240464 151.93928132 -25 152 C-25.34172766 120.97872263 -25.34172766 120.97872263 -22 116 C-20.96875 115.2575 -19.9375 114.515 -18.875 113.75 C-17.92625 112.8425 -16.9775 111.935 -16 111 C-16.03277694 109.09893723 -16.07736285 107.19563248 -16.234375 105.30078125 C-15.81208649 101.15531572 -13.2014428 98.12852244 -10.890625 94.765625 C-8.31126429 90.99251057 -6.15646933 87.0247469 -4 83 C0.6409644 83.42190585 4.60108447 84.49856395 9 86.0625 C13.53273689 87.60351765 17.17448318 88.75694381 22 88 C23.16728345 87.3276017 24.31278304 86.61640535 25.4375 85.875 C27.63015681 84.44977308 28.57888706 83.96589578 31.21875 84.1796875 C33.4375 84.75 33.4375 84.75 37 86 C37 85.01 37 84.02 37 83 C35.948125 82.855625 34.89625 82.71125 33.8125 82.5625 C31.83007812 82.02539062 31.83007812 82.02539062 30 81 C28.96679688 79.02148438 28.96679688 79.02148438 28.03125 76.65625 C25.79240769 72.37285744 23.83345965 71.09473705 19.26171875 69.58984375 C17.07965905 69.00312679 14.88745108 68.45309344 12.6875 67.9375 C11.00430664 67.49760742 11.00430664 67.49760742 9.28710938 67.04882812 C6.53124271 66.3334755 3.77137724 65.65214498 1 65 C0.97421875 64.11957031 0.9484375 63.23914063 0.921875 62.33203125 C0.86515625 61.17058594 0.8084375 60.00914063 0.75 58.8125 C0.70359375 57.66394531 0.6571875 56.51539062 0.609375 55.33203125 C-0.10290264 51.43733362 -1.19402479 49.75631194 -4 47 C-5.98715593 45.97634549 -5.98715593 45.97634549 -8.0625 45.5 C-12.04270944 44.20753347 -13.03886463 42.73549594 -15 39 C-17.97273928 36.68786945 -19.79348964 36.02536092 -23.5625 35.5625 C-27.51112461 34.91636143 -28.43636379 33.92986995 -31 31 C-34.47753071 29.8408231 -37.13046286 30.04980666 -40.74609375 30.2578125 C-43 30 -43 30 -44.94921875 28.51953125 C-48.76146208 25.69484048 -53.46972055 26.38461522 -58 27 C-60.80065335 28.20493225 -62.83404654 29.83404654 -65 32 C-65.3931648 33.67884238 -65.74085452 35.36850045 -66.0625 37.0625 C-66.23910156 37.98160156 -66.41570312 38.90070312 -66.59765625 39.84765625 C-66.73042969 40.55792969 -66.86320312 41.26820312 -67 42 C-72.05449547 41.58154504 -76.30615591 40.99488374 -81 39 C-82.49512879 38.64545659 -83.99587261 38.3141845 -85.5 38 C-88.83873242 37.29769568 -91.8770384 36.41036975 -95 35 C-94.505 35.94875 -94.01 36.8975 -93.5 37.875 C-92 41 -92 41 -92 43 C-95.82946843 41.54744301 -97.12050295 39.57104439 -99 36 C-102.93075644 36.57452746 -102.93075644 36.57452746 -106 39 C-106.46006346 41.20250992 -106.46006346 41.20250992 -106.625 43.625 C-106.69976562 44.44226563 -106.77453125 45.25953125 -106.8515625 46.1015625 C-106.92503906 47.04128906 -106.92503906 47.04128906 -107 48 C-106.40832031 47.7834375 -105.81664062 47.566875 -105.20703125 47.34375 C-97.35852373 44.57820738 -97.35852373 44.57820738 -93 45 C-94.35304209 47.70608417 -95.80966544 47.96183047 -98.5625 49.125 C-99.38878906 49.47820312 -100.21507813 49.83140625 -101.06640625 50.1953125 C-101.70449219 50.46085937 -102.34257813 50.72640625 -103 51 C-99.93889304 51.98355849 -96.8758844 52.96106019 -93.8125 53.9375 C-92.94818359 54.21529297 -92.08386719 54.49308594 -91.19335938 54.77929688 C-90.35224609 55.04677734 -89.51113281 55.31425781 -88.64453125 55.58984375 C-87.87471924 55.83597412 -87.10490723 56.08210449 -86.31176758 56.33569336 C-83.89173463 57.031111 -81.47441045 57.53879898 -79 58 C-80.15173355 60.46800047 -81.04783565 62.04783565 -83 64 C-84.99462079 74.50025371 -82.49080833 81.4376499 -76.64550781 90.09985352 C-76.1965918 90.76815186 -75.74767578 91.4364502 -75.28515625 92.125 C-74.87144775 92.70507812 -74.45773926 93.28515625 -74.03149414 93.8828125 C-71.9621585 98.13021574 -71.74963418 101.88106651 -72.77270508 106.45336914 C-73.18415771 107.63535889 -73.59561035 108.81734863 -74.01953125 110.03515625 C-74.34747932 110.99777626 -74.34747932 110.99777626 -74.68205261 111.97984314 C-75.37813006 114.01257974 -76.09476181 116.03732355 -76.8125 118.0625 C-77.28329622 119.42464879 -77.7527098 120.7872763 -78.22070312 122.15039062 C-79.08502202 124.6621269 -79.95868027 127.16981487 -80.83911133 129.67602539 C-81.92145142 132.77509172 -82.96995885 135.88321458 -84 139 C-92.73287747 137.71810973 -100.79693573 126.61081976 -106 120 C-118.3835893 102.68092221 -123.06771517 81.44247764 -120.25 60.5 C-116.42945378 38.69104869 -106.04490632 18.67962449 -87.671875 5.55078125 C-60.76754111 -12.7884885 -28.83974043 -15.38376528 0 0 Z " fill="#0566AA" transform="translate(135,24)"/>
<path d="M0 0 C0.80566406 0.22171875 1.61132812 0.4434375 2.44140625 0.671875 C3.63443359 0.94257812 3.63443359 0.94257812 4.8515625 1.21875 C6.7266313 1.65527395 8.58643128 2.15660418 10.44140625 2.671875 C10.44140625 3.001875 10.44140625 3.331875 10.44140625 3.671875 C5.49140625 3.671875 0.54140625 3.671875 -4.55859375 3.671875 C-5.21859375 8.621875 -5.87859375 13.571875 -6.55859375 18.671875 C-4.57859375 19.001875 -2.59859375 19.331875 -0.55859375 19.671875 C3.7161054 22.06570652 6.88474792 24.47165061 9.44140625 28.671875 C10.33470413 31.97606204 10.9419547 35.28743355 11.44140625 38.671875 C13.09140625 39.001875 14.74140625 39.331875 16.44140625 39.671875 C16.30143413 32.03703221 16.04335039 25.32406079 10.44140625 19.671875 C7.23994042 17.39070822 3.93748072 15.46403744 0.44140625 13.671875 C0.77140625 12.351875 1.10140625 11.031875 1.44140625 9.671875 C2.87796479 9.59056037 4.31585455 9.53253941 5.75390625 9.484375 C6.55441406 9.44957031 7.35492188 9.41476563 8.1796875 9.37890625 C10.96918799 9.74024051 11.5681688 10.6696267 13.44140625 12.671875 C14.55515625 12.81625 15.66890625 12.960625 16.81640625 13.109375 C20.97550521 13.75475242 22.25992746 15.047155 25.44140625 17.671875 C27.7512894 18.41573568 30.08456569 19.09378203 32.44140625 19.671875 C33.10140625 20.001875 33.76140625 20.331875 34.44140625 20.671875 C37.2045871 20.70257701 39.95324594 20.6047645 42.71484375 20.51171875 C45.50997065 20.67590242 47.06966185 21.23871192 49.44140625 22.671875 C48.89423199 28.54259882 45.28349214 32.81079201 42.03515625 37.52539062 C39.71344441 41.05182795 38.23606328 43.60720974 38.00390625 47.87109375 C37.72546875 49.75248047 37.72546875 49.75248047 37.44140625 51.671875 C36.46469971 52.38996338 35.48799316 53.10805176 34.48168945 53.84790039 C31.7668399 55.97473468 30.9638601 57.38412867 30.50073242 60.80371094 C30.38352315 62.41941304 30.29627988 64.03748532 30.234375 65.65625 C30.17864822 66.51244934 30.12292145 67.36864868 30.06550598 68.25079346 C29.8934588 70.973665 29.76003731 73.69675505 29.62890625 76.421875 C29.47176189 79.16026548 29.30683437 81.89806428 29.13874817 84.63580322 C29.03707663 86.33695488 28.94335654 88.03860333 28.85820007 89.74066162 C28.54879855 95.5644827 28.54879855 95.5644827 27.44140625 96.671875 C12.13790562 97.99592033 -4.6327343 95.28911463 -17.55859375 86.671875 C-15.74924361 77.03654053 -12.34762176 67.89523329 -9.1484375 58.65380859 C-8.39061326 56.45887923 -7.64211246 54.26093531 -6.89453125 52.0625 C-6.54302505 51.0608078 -6.54302505 51.0608078 -6.18441772 50.03887939 C-4.9799482 46.48215642 -4.0566127 43.42447981 -4.55859375 39.671875 C-5.62814601 37.38019131 -5.62814601 37.38019131 -7.18359375 35.1953125 C-7.725 34.35871094 -8.26640625 33.52210937 -8.82421875 32.66015625 C-9.96969264 30.93420573 -11.12578496 29.21525005 -12.29296875 27.50390625 C-16.30599106 21.24550241 -17.93790748 16.11385857 -16.55859375 8.671875 C-12.92593732 1.75754345 -7.68683695 -1.5878912 0 0 Z " fill="#0768AA" transform="translate(74.55859375,81.328125)"/>
<path d="M0 0 C2.02107544 0.02149041 4.03859952 0.00003039 6.05957031 -0.02539062 C23.12533209 -0.06129407 45.40935677 5.40991671 58.09472656 17.49804688 C58.73023438 18.16578125 59.36574219 18.83351563 60.02050781 19.52148438 C61.28149963 20.63687714 62.55240243 21.74116634 63.83300781 22.83398438 C69.32488513 27.61888495 74.43647567 32.10795316 78.02050781 38.52148438 C78.68050781 38.85148437 79.34050781 39.18148437 80.02050781 39.52148438 C81.2199763 41.67225545 82.32692171 43.80690322 83.39550781 46.02148438 C83.70786377 46.662229 84.02021973 47.30297363 84.34204102 47.96313477 C84.96251098 49.24161546 85.57984971 50.52162116 86.19384766 51.80322266 C86.8579039 53.18350258 87.53986711 54.55516066 88.22753906 55.92382812 C93.6885497 67.25923267 95.69903515 79.01606077 95.54199219 91.50097656 C95.52050178 93.52205201 95.5419618 95.53957609 95.56738281 97.56054688 C95.60328626 114.62630865 90.13207548 136.91033333 78.04394531 149.59570312 C77.37621094 150.23121094 76.70847656 150.86671875 76.02050781 151.52148438 C74.90511505 152.78247619 73.80082584 154.053379 72.70800781 155.33398438 C67.92310724 160.8258617 63.43403902 165.93745223 57.02050781 169.52148438 C56.69050781 170.18148437 56.36050781 170.84148437 56.02050781 171.52148438 C53.86973674 172.72095286 51.73508896 173.82789827 49.52050781 174.89648438 C48.87976318 175.20884033 48.23901855 175.52119629 47.57885742 175.84301758 C46.30037672 176.46348754 45.02037103 177.08082627 43.73876953 177.69482422 C42.35848961 178.35888046 40.98683153 179.04084368 39.61816406 179.72851562 C28.28275952 185.18952626 16.52593142 187.20001172 4.04101562 187.04296875 C2.01994018 187.02147834 0.0024161 187.04293836 -2.01855469 187.06835938 C-19.08431646 187.10426282 -41.36834114 181.63305204 -54.05371094 169.54492188 C-54.68921875 168.8771875 -55.32472656 168.20945313 -55.97949219 167.52148438 C-57.24048401 166.40609161 -58.51138681 165.30180241 -59.79199219 164.20898438 C-65.28386951 159.4240838 -70.39546004 154.93501559 -73.97949219 148.52148438 C-74.63949219 148.19148437 -75.29949219 147.86148438 -75.97949219 147.52148438 C-77.17896067 145.3707133 -78.28590608 143.23606553 -79.35449219 141.02148438 C-79.66684814 140.38073975 -79.9792041 139.73999512 -80.30102539 139.07983398 C-80.92149535 137.80135329 -81.53883409 136.52134759 -82.15283203 135.23974609 C-82.81688827 133.85946617 -83.49885149 132.48780809 -84.18652344 131.11914062 C-89.64753407 119.78373608 -91.65801953 108.02690798 -91.50097656 95.54199219 C-91.47948615 93.52091674 -91.50094617 91.50339266 -91.52636719 89.48242188 C-91.56227064 72.4166601 -86.09105985 50.13263542 -74.00292969 37.44726562 C-73.33519531 36.81175781 -72.66746094 36.17625 -71.97949219 35.52148438 C-70.86409942 34.26049256 -69.75981022 32.98958975 -68.66699219 31.70898438 C-63.88209161 26.21710705 -59.3930234 21.10551652 -52.97949219 17.52148438 C-52.64949219 16.86148437 -52.31949219 16.20148437 -51.97949219 15.52148438 C-49.82872111 14.32201589 -47.69407334 13.21507048 -45.47949219 12.14648438 C-44.83874756 11.83412842 -44.19800293 11.52177246 -43.5378418 11.19995117 C-42.2593611 10.57948121 -40.9793554 9.96214248 -39.69775391 9.34814453 C-38.31747398 8.68408829 -36.94581591 8.00212507 -35.57714844 7.31445312 C-24.2417439 1.85344249 -12.48491579 -0.15704297 0 0 Z M-60.94042969 31.52148438 C-62.68828329 33.47541679 -64.34930464 35.46865561 -65.97949219 37.52148438 C-66.49125 38.15828125 -67.00300781 38.79507813 -67.53027344 39.45117188 C-69.07381596 41.4374359 -70.53751309 43.46041558 -71.97949219 45.52148438 C-72.47320312 46.21242187 -72.96691406 46.90335938 -73.47558594 47.61523438 C-85.92427097 66.49843453 -88.29634191 90.77985063 -83.97949219 112.52148438 C-80.56103734 126.84156124 -74.45170664 139.18781485 -64.97949219 150.52148438 C-64.21636719 151.53210938 -63.45324219 152.54273438 -62.66699219 153.58398438 C-62.11011719 154.22335938 -61.55324219 154.86273438 -60.97949219 155.52148438 C-60.31949219 155.52148438 -59.65949219 155.52148438 -58.97949219 155.52148438 C-58.64949219 156.51148438 -58.31949219 157.50148437 -57.97949219 158.52148438 C-54.19045473 161.79865846 -50.07351503 164.64032199 -45.97949219 167.52148438 C-45.191875 168.08609375 -44.40425781 168.65070313 -43.59277344 169.23242188 C-26.09651302 180.77445754 -2.37597212 184.3032014 17.99072266 180.3918457 C38.07594731 176.02764343 57.15461216 165.80488356 70.02050781 149.52148438 C70.68050781 148.69777344 71.34050781 147.8740625 72.02050781 147.02539062 C80.01920535 136.5876963 84.63370767 125.15685414 88.02050781 112.52148438 C88.24738281 111.72742188 88.47425781 110.93335937 88.70800781 110.11523438 C94.18623996 87.89795956 87.39728936 64.50279011 75.92675781 45.43554688 C72.95567436 40.89368569 69.79051656 36.4388268 66.02050781 32.52148438 C65.36050781 32.52148438 64.70050781 32.52148438 64.02050781 32.52148438 C63.69050781 31.53148438 63.36050781 30.54148437 63.02050781 29.52148438 C52.49733265 19.18171967 38.93145879 12.80982265 25.02050781 8.52148438 C24.25996094 8.286875 23.49941406 8.05226563 22.71582031 7.81054688 C-6.62183998 -0.31916622 -39.93059792 10.09313006 -60.94042969 31.52148438 Z " fill="#0768AB" transform="translate(93.9794921875,2.478515625)"/>
<path d="M0 0 C2.5 0.25 2.5 0.25 4.5 2.25 C5.49352862 8.22020377 2.667027 12.0811511 -0.375 16.9375 C-0.83519531 17.69611328 -1.29539062 18.45472656 -1.76953125 19.23632812 C-3.62461118 22.28242314 -5.52141207 25.2821181 -7.5 28.25 C-9.15 27.92 -10.8 27.59 -12.5 27.25 C-11.92594135 21.37572857 -10.24877771 16.40096793 -8.0625 10.9375 C-7.74990234 10.12732422 -7.43730469 9.31714844 -7.11523438 8.48242188 C-3.92928052 0.39292805 -3.92928052 0.39292805 0 0 Z " fill="#0C6BAC" transform="translate(112.5,65.75)"/>
<path d="M0 0 C1.875 1.125 1.875 1.125 3 3 C2.48592876 7.20933624 1.48638398 11.27067137 0.4375 15.375 C0.16808594 16.43460938 -0.10132812 17.49421875 -0.37890625 18.5859375 C-0.58386719 19.38257812 -0.78882812 20.17921875 -1 21 C-3.97 20.67 -6.94 20.34 -10 20 C-10.13487595 17.22754986 -10.23400807 14.46162912 -10.3125 11.6875 C-10.35439453 10.90181641 -10.39628906 10.11613281 -10.43945312 9.30664062 C-10.48638633 7.10077981 -10.47161026 5.15658672 -10 3 C-6.80237227 0.25841868 -4.18705151 -0.6611134 0 0 Z " fill="#0F6DAD" transform="translate(85,56)"/>
<path d="M0 0 C2.98704569 0.49784095 4.39324263 1.26216175 7 3 C6.40227336 6.43493576 5.52472216 9.44231496 4.15234375 12.64453125 C3.79462891 13.48564453 3.43691406 14.32675781 3.06835938 15.19335938 C2.69517578 16.05767578 2.32199219 16.92199219 1.9375 17.8125 C1.37192383 19.13797852 1.37192383 19.13797852 0.79492188 20.49023438 C-0.13248554 22.66201124 -1.06423634 24.83181367 -2 27 C-5.17913755 23.5444157 -5.79603743 20.65228915 -6 16 C-5.46581528 13.26896357 -4.5928505 10.72995934 -3.625 8.125 C-3.39039062 7.44953125 -3.15578125 6.7740625 -2.9140625 6.078125 C-1.18463703 1.18463703 -1.18463703 1.18463703 0 0 Z " fill="#0F6DAD" transform="translate(96,59)"/>
<path d="M0 0 C2.375 0.3125 2.375 0.3125 5 1 C7.29013653 4.4352048 7.17842973 5.985331 7 10 C6.29875 10.185625 5.5975 10.37125 4.875 10.5625 C1.43622325 12.28188837 -0.13461859 14.36692506 -2.515625 17.3125 C-4.41651532 19.47351215 -6.40680451 20.77543546 -9 22 C-9.66 22 -10.32 22 -11 22 C-10.49844814 16.67501327 -7.65564273 12.64794605 -4.9375 8.1875 C-4.46505859 7.39923828 -3.99261719 6.61097656 -3.50585938 5.79882812 C-2.34368685 3.86187392 -1.17495583 1.92921705 0 0 Z " fill="#1470AF" transform="translate(123,75)"/>
<path d="M0 0 C0.99 0.33 1.98 0.66 3 1 C3 1.99 3 2.98 3 4 C3.66 4 4.32 4 5 4 C5 3.34 5 2.68 5 2 C11.52307692 3.35384615 11.52307692 3.35384615 13.9375 6.625 C14.288125 7.40875 14.63875 8.1925 15 9 C14.01 9.495 14.01 9.495 13 10 C13.33 10.66 13.66 11.32 14 12 C9.8204355 14.78637633 7.85331323 13.79562512 3 13 C3 11.68 3 10.36 3 9 C2.01 9.66 1.02 10.32 0 11 C-0.99 11 -1.98 11 -3 11 C-2.690625 10.29875 -2.38125 9.5975 -2.0625 8.875 C-0.96697322 5.91063343 -0.43577008 3.12301892 0 0 Z " fill="#7DAFD2" transform="translate(145,95)"/>
<path d="M0 0 C1.11375 0.495 1.11375 0.495 2.25 1 C5.13883312 2.22782871 5.13883312 2.22782871 9 2 C9 3.32 9 4.64 9 6 C7.35 6 5.7 6 4 6 C4 6.66 4 7.32 4 8 C6.31 8.33 8.62 8.66 11 9 C11 9.66 11 10.32 11 11 C10.34 11 9.68 11 9 11 C8.67 11.99 8.34 12.98 8 14 C5.69 13.67 3.38 13.34 1 13 C1 12.34 1 11.68 1 11 C-0.65 11 -2.3 11 -4 11 C-4 10.34 -4 9.68 -4 9 C-3.34 8.401875 -2.68 7.80375 -2 7.1875 C0.26582026 5.15230922 0.26582026 5.15230922 0.25 2.25 C0.1675 1.5075 0.085 0.765 0 0 Z " fill="#6BA5CC" transform="translate(52,66)"/>
<path d="M0 0 C2.31 0.66 4.62 1.32 7 2 C7.33 3.65 7.66 5.3 8 7 C7.34 7 6.68 7 6 7 C5.8453125 7.9590625 5.8453125 7.9590625 5.6875 8.9375 C5.460625 9.618125 5.23375 10.29875 5 11 C4.01 11.33 3.02 11.66 2 12 C2 11.34 2 10.68 2 10 C0.35 10.33 -1.3 10.66 -3 11 C-2.34 9.35 -1.68 7.7 -1 6 C-0.34 6 0.32 6 1 6 C0.67 4.02 0.34 2.04 0 0 Z " fill="#86B5D6" transform="translate(135,92)"/>
<path d="M0 0 C1.32 0 2.64 0 4 0 C4.33 1.65 4.66 3.3 5 5 C4.34 5 3.68 5 3 5 C2.773125 5.639375 2.54625 6.27875 2.3125 6.9375 C1 9 1 9 -1.625 9.75 C-2.40875 9.8325 -3.1925 9.915 -4 10 C-4.12375 9.21625 -4.2475 8.4325 -4.375 7.625 C-4.79117993 4.85942178 -4.79117993 4.85942178 -7 3 C-5.35 2.34 -3.7 1.68 -2 1 C-1.67 1.33 -1.34 1.66 -1 2 C-0.67 1.34 -0.34 0.68 0 0 Z " fill="#8DBAD8" transform="translate(46,65)"/>
<path d="M0 0 C0.99 0.33 1.98 0.66 3 1 C3 1.99 3 2.98 3 4 C3.639375 4.2475 4.27875 4.495 4.9375 4.75 C7 6 7 6 7.9375 7.9375 C8 10 8 10 6.6875 11.75 C5 13 5 13 3 13 C3 11.68 3 10.36 3 9 C2.01 9.66 1.02 10.32 0 11 C-0.99 11 -1.98 11 -3 11 C-2.690625 10.29875 -2.38125 9.5975 -2.0625 8.875 C-0.96697322 5.91063343 -0.43577008 3.12301892 0 0 Z " fill="#6FA7CE" transform="translate(145,95)"/>
<path d="M0 0 C2.97 0.495 2.97 0.495 6 1 C6 2.32 6 3.64 6 5 C4.35 5 2.7 5 1 5 C1 5.66 1 6.32 1 7 C1.99 7 2.98 7 4 7 C3.34 8.32 2.68 9.64 2 11 C1.34 11 0.68 11 0 11 C-0.33 10.34 -0.66 9.68 -1 9 C-1.99 9 -2.98 9 -4 9 C-3.34 7.68 -2.68 6.36 -2 5 C-1.34 5 -0.68 5 0 5 C0 3.35 0 1.7 0 0 Z " fill="#5D9CC8" transform="translate(127,90)"/>
<path d="M0 0 C-1.47563225 2.9512645 -3.50079352 3.06923915 -6.5625 4.125 C-7.57441406 4.47820312 -8.58632813 4.83140625 -9.62890625 5.1953125 C-10.41136719 5.46085937 -11.19382812 5.72640625 -12 6 C-12 5.34 -12 4.68 -12 4 C-12.66 3.67 -13.32 3.34 -14 3 C-4.58997722 -0.44419134 -4.58997722 -0.44419134 0 0 Z " fill="#1E76B2" transform="translate(42,69)"/>
<path d="M0 0 C2.31 0.66 4.62 1.32 7 2 C7 3.32 7 4.64 7 6 C4.69 5.34 2.38 4.68 0 4 C0 2.68 0 1.36 0 0 Z " fill="#5E9DC8" transform="translate(135,92)"/>
<path d="M0 0 C3.3 0.66 6.6 1.32 10 2 C10 2.33 10 2.66 10 3 C5.38 3 0.76 3 -4 3 C-2.68 2.67 -1.36 2.34 0 2 C0 1.34 0 0.68 0 0 Z " fill="#2178B3" transform="translate(75,82)"/>
<path d="M0 0 C1.32 0 2.64 0 4 0 C4 1.65 4 3.3 4 5 C2.68 4.67 1.36 4.34 0 4 C0 2.68 0 1.36 0 0 Z " fill="#64A0CA" transform="translate(62,69)"/>
<path d="M0 0 C1.98 0.495 1.98 0.495 4 1 C4 1.66 4 2.32 4 3 C3.34 3 2.68 3 2 3 C1.67 3.99 1.34 4.98 1 6 C0.34 6 -0.32 6 -1 6 C-0.67 4.02 -0.34 2.04 0 0 Z " fill="#82B3D4" transform="translate(59,74)"/>
<path d="M0 0 C0.66 0.33 1.32 0.66 2 1 C1.67 2.32 1.34 3.64 1 5 C-0.98 4.34 -2.96 3.68 -5 3 C-3 1 -3 1 0 0 Z " fill="#BFD8E9" transform="translate(36,72)"/>
</svg>
