<svg xmlns="http://www.w3.org/2000/svg" xmlns:xlink="http://www.w3.org/1999/xlink" viewBox="0 0 430 430" width="430" height="430" preserveAspectRatio="xMidYMid meet" style="width: 100%; height: 100%; transform: translate3d(0px, 0px, 0px); content-visibility: visible;"><defs><clipPath id="__lottie_element_2"><rect width="430" height="430" x="0" y="0"/></clipPath><clipPath id="__lottie_element_4"><path d="M0,0 L430,0 L430,430 L0,430z"/></clipPath></defs><g clip-path="url(#__lottie_element_2)"><g clip-path="url(#__lottie_element_4)" transform="matrix(1,0,0,1,0,0)" opacity="1" style="display: block;"><g transform="matrix(1,0,0,1,219.34837341308594,215)" opacity="1" style="display: none;"><g opacity="1" transform="matrix(1,0,0,1,0,0)"><path stroke-linecap="butt" stroke-linejoin="round" fill-opacity="0" class="secondary" stroke="rgb(0,0,0)" stroke-opacity="1" stroke-width="18" d=" M149.6820068359375,-107.06199645996094 C106.6500015258789,-107.06199645996094 71.76499938964844,-141.95599365234375 71.76499938964844,-185 C71.76499938964844,-185 -2.049999952316284,-185 -2.049999952316284,-185 C-2.049999952316284,-185 -2.049999952316284,70.14399719238281 -2.049999952316284,70.14399719238281 C-2.049999952316284,71.54199981689453 -2.0510001182556152,72.74299621582031 -2.049999952316284,74.23200225830078 C-2.049999952316284,74.23200225830078 -2.049999952316284,74.26000213623047 -2.049999952316284,74.26000213623047 C-2.058000087738037,94.64299774169922 -18.57900047302246,111.16400146484375 -38.95800018310547,111.16400146484375 C-59.34199905395508,111.16400146484375 -75.86599731445312,94.63500213623047 -75.86599731445312,74.24600219726562 C-75.86599731445312,55.24300003051758 -61.51300048828125,39.59299850463867 -43.058998107910156,37.553001403808594 C-43.058998107910156,37.553001403808594 -43.058998107910156,-36.43299865722656 -43.058998107910156,-36.43299865722656 C-102.30999755859375,-34.275001525878906 -149.6820068359375,14.45199966430664 -149.6820068359375,74.24600219726562 C-149.6820068359375,135.41400146484375 -100.10900115966797,185 -38.95800018310547,185 C21.645000457763672,185 70.8759994506836,136.29800415039062 71.75299835205078,75.88700103759766 C71.75299835205078,75.88700103759766 71.76499938964844,75.88700103759766 71.76499938964844,75.88700103759766 C71.76499938964844,75.88700103759766 71.76499938964844,-54.73899841308594 71.76499938964844,-54.73899841308594 C94.54000091552734,-41.07899856567383 121.19400024414062,-33.22600173950195 149.6820068359375,-33.22600173950195 C149.6820068359375,-33.22600173950195 149.6820068359375,-107.06199645996094 149.6820068359375,-107.06199645996094z"/></g></g><g transform="matrix(1,0,0,1,217.6820068359375,215)" opacity="1" style="display: block;"><g opacity="1" transform="matrix(1,0,0,1,0,0)"><path stroke-linecap="butt" stroke-linejoin="round" fill-opacity="0" class="primary" stroke="rgb(0,0,0)" stroke-opacity="1" stroke-width="18" d=" M149.6820068359375,-107.06199645996094 C106.6500015258789,-107.06199645996094 71.76499938964844,-141.95599365234375 71.76499938964844,-185 C71.76499938964844,-185 -2.049999952316284,-185 -2.049999952316284,-185 C-2.049999952316284,-185 -2.049999952316284,70.14399719238281 -2.049999952316284,70.14399719238281 C-2.049999952316284,71.54199981689453 -2.0510001182556152,72.74299621582031 -2.049999952316284,74.23200225830078 C-2.049999952316284,74.23200225830078 -2.049999952316284,74.26000213623047 -2.049999952316284,74.26000213623047 C-2.058000087738037,94.64299774169922 -18.57900047302246,111.16400146484375 -38.95800018310547,111.16400146484375 C-59.34199905395508,111.16400146484375 -75.86599731445312,94.63500213623047 -75.86599731445312,74.24600219726562 C-75.86599731445312,55.24300003051758 -61.51300048828125,39.59299850463867 -43.058998107910156,37.553001403808594 C-43.058998107910156,37.553001403808594 -43.058998107910156,-36.43299865722656 -43.058998107910156,-36.43299865722656 C-102.30999755859375,-34.275001525878906 -149.6820068359375,14.45199966430664 -149.6820068359375,74.24600219726562 C-149.6820068359375,135.41400146484375 -100.10900115966797,185 -38.95800018310547,185 C21.645000457763672,185 70.8759994506836,136.29800415039062 71.75299835205078,75.88700103759766 C71.75299835205078,75.88700103759766 71.76499938964844,75.88700103759766 71.76499938964844,75.88700103759766 C71.76499938964844,75.88700103759766 71.76499938964844,-54.73899841308594 71.76499938964844,-54.73899841308594 C94.54000091552734,-41.07899856567383 121.19400024414062,-33.22600173950195 149.6820068359375,-33.22600173950195 C149.6820068359375,-33.22600173950195 149.6820068359375,-107.06199645996094 149.6820068359375,-107.06199645996094z"/></g></g></g></g></svg>