<svg xmlns="http://www.w3.org/2000/svg" xmlns:xlink="http://www.w3.org/1999/xlink" viewBox="0 0 430 430" width="430" height="430" preserveAspectRatio="xMidYMid meet" style="width: 100%; height: 100%; transform: translate3d(0px, 0px, 0px); content-visibility: visible;"><defs><clipPath id="__lottie_element_2"><rect width="430" height="430" x="0" y="0"/></clipPath><clipPath id="__lottie_element_4"><path d="M0,0 L430,0 L430,430 L0,430z"/></clipPath><g id="__lottie_element_11"><g style="display: none;" transform="matrix(1,0,0,1,215,215)" opacity="1"><g opacity="1" transform="matrix(1,0,0,1,0,0)"><path fill="rgb(255,0,0)" fill-opacity="1" d=" M129.6163330078125,-160 C129.6163330078125,-160 161,-160 161,-160 C161,-160 -130.2303009033203,160 -130.2303009033203,160 C-130.2303009033203,160 -161,160 -161,160 C-161,160 129.6163330078125,-160 129.6163330078125,-160z"/></g></g></g><filter id="__lottie_element_17" filterUnits="objectBoundingBox" x="0%" y="0%" width="100%" height="100%"><feComponentTransfer in="SourceGraphic"><feFuncA type="table" tableValues="1.0 0.0"/></feComponentTransfer></filter><mask id="__lottie_element_11_2" mask-type="alpha"><g filter="url(#__lottie_element_17)"><rect width="430" height="430" x="0" y="0" fill="#ffffff" opacity="0"/><use xmlns:ns1="http://www.w3.org/1999/xlink" ns1:href="#__lottie_element_11"/></g></mask><g id="__lottie_element_38"><g transform="matrix(1,0,0,1,215,215)" opacity="1" style="display: none;"><g opacity="1" transform="matrix(1,0,0,1,0,0)"><path fill="rgb(255,0,0)" fill-opacity="1" d=" M-80.25899505615234,-160 C-80.25899505615234,-160 -160,-160 -160,-160 C-160,-160 80.25899505615234,160 80.25899505615234,160 C80.25899505615234,160 160,160 160,160 C160,160 -80.25899505615234,-160 -80.25899505615234,-160z"/></g></g></g><filter id="__lottie_element_41" filterUnits="objectBoundingBox" x="0%" y="0%" width="100%" height="100%"><feComponentTransfer in="SourceGraphic"><feFuncA type="table" tableValues="1.0 0.0"/></feComponentTransfer></filter><mask id="__lottie_element_38_2" mask-type="alpha"><g filter="url(#__lottie_element_41)"><rect width="430" height="430" x="0" y="0" fill="#ffffff" opacity="0"/><use xmlns:ns2="http://www.w3.org/1999/xlink" ns2:href="#__lottie_element_38"/></g></mask></defs><g clip-path="url(#__lottie_element_2)"><g clip-path="url(#__lottie_element_4)" transform="matrix(1,0,0,1,0,0)" opacity="1" style="display: block;"><g mask="url(#__lottie_element_38_2)" style="display: none;"><g transform="matrix(1,0,0,1,215,215)" opacity="1"><g opacity="1" transform="matrix(1,0,0,1,0,0)"><path stroke-linecap="round" stroke-linejoin="round" fill-opacity="0" class="primary" stroke="rgb(0,0,0)" stroke-opacity="1" stroke-width="18" d=" M160.2410125732422,-160 C160.2410125732422,-160 161,-160 161,-160 C161,-160 -161.23777770996094,160 -161.23777770996094,160 C-161.23777770996094,160 -161,160 -161,160 C-161,160 160.2410125732422,-160 160.2410125732422,-160z"/></g></g></g><g transform="matrix(1,0,0,1,215,215)" opacity="1" style="display: none;"><g opacity="1" transform="matrix(1,0,0,1,0,0)"><path stroke-linecap="round" stroke-linejoin="round" fill-opacity="0" class="primary" stroke="rgb(0,0,0)" stroke-opacity="1" stroke-width="18" d=" M129.6163330078125,-160 C129.6163330078125,-160 161,-160 161,-160 C161,-160 -130.2303009033203,160 -130.2303009033203,160 C-130.2303009033203,160 -161,160 -161,160 C-161,160 129.6163330078125,-160 129.6163330078125,-160z"/></g></g><g mask="url(#__lottie_element_11_2)" style="display: none;"><g transform="matrix(1,0,0,1,215,215)" opacity="1"><g opacity="1" transform="matrix(1,0,0,1,0,0)"><path stroke-linecap="round" stroke-linejoin="round" fill-opacity="0" class="primary" stroke="rgb(0,0,0)" stroke-opacity="1" stroke-width="18" d=" M-110.88365936279297,-160 C-110.88365936279297,-160 -160,-160 -160,-160 C-160,-160 110.88365936279297,160 110.88365936279297,160 C110.88365936279297,160 160,160 160,160 C160,160 -110.88365936279297,-160 -110.88365936279297,-160z"/></g></g></g><g transform="matrix(1,0,0,1,215,215)" opacity="1" style="display: block;"><g opacity="1" transform="matrix(1,0,0,1,0,0)"><path stroke-linecap="round" stroke-linejoin="round" fill-opacity="0" class="primary" stroke="rgb(0,0,0)" stroke-opacity="1" stroke-width="18" d=" M-80,-160 C-80,-160 -160,-160 -160,-160 C-160,-160 80,160 80,160 C80,160 160,160 160,160 C160,160 -80,-160 -80,-160z"/></g></g><g transform="matrix(1,0,0,1,215,215)" opacity="1" style="display: none;"><g opacity="1" transform="matrix(1,0,0,1,0,0)"><path stroke-linecap="round" stroke-linejoin="round" fill-opacity="0" class="primary" stroke="rgb(0,0,0)" stroke-opacity="1" stroke-width="18" d=" M-22.85700035095215,22.85700035095215 C-22.85700035095215,22.85700035095215 -160,160 -160,160"/></g><g opacity="1" transform="matrix(1,0,0,1,0,0)"><path stroke-linecap="round" stroke-linejoin="round" fill-opacity="0" class="primary" stroke="rgb(0,0,0)" stroke-opacity="1" stroke-width="18" d=" M22.85700035095215,-22.85700035095215 C22.85700035095215,-22.85700035095215 160,-160 160,-160"/></g></g><g transform="matrix(1,0,0,1,215,215)" opacity="1" style="display: block;"><g opacity="1" transform="matrix(1,0,0,1,0,0)"><path stroke-linecap="round" stroke-linejoin="round" fill-opacity="0" class="primary" stroke="rgb(0,0,0)" stroke-opacity="1" stroke-width="18" d=" M-22.85700035095215,22.85700035095215 C-22.85700035095215,22.85700035095215 -160,160 -160,160"/></g><g opacity="1" transform="matrix(1,0,0,1,0,0)"><path stroke-linecap="round" stroke-linejoin="round" fill-opacity="0" class="primary" stroke="rgb(0,0,0)" stroke-opacity="1" stroke-width="18" d=" M22.85700035095215,-22.85700035095215 C22.85700035095215,-22.85700035095215 160,-160 160,-160"/></g></g></g></g></svg>