<?xml version="1.0" encoding="utf-8" ?><svg xmlns="http://www.w3.org/2000/svg" xmlns:xlink="http://www.w3.org/1999/xlink" width="1080" height="1080" viewBox="0 0 1080 1080"><path fill="#070708" d="M340.539 171.214C346.192 168.131 351.161 166.557 357.017 164.323C430.422 136.328 509.12 130.24 584.441 155.093C587.207 156.006 589.721 156.774 591.986 158.698C592.099 165.109 589.628 172.654 587.889 178.91C583.398 195.058 580.703 211.553 577.716 228.024C577.205 230.837 576.861 233.49 576.068 236.259C582.624 239.112 591.333 243.735 597.347 247.688C608.917 240.034 620.191 229.508 630.558 220.161C635.976 215.276 639.497 210.989 645.54 206.026C648.178 207.62 650.109 209.969 652.303 212.11C685.512 244.522 709.183 286.727 722.465 331.01C724.976 339.382 725.037 349.223 725.002 357.886C717.03 360.985 707.997 363.449 699.726 365.835C691.863 368.104 683.658 370.896 675.815 373.019C678.223 384.361 682.092 396.409 683.988 407.691C691.168 406.687 700.506 407.339 707.938 406.995C712.39 406.789 728.047 405.255 731.069 407.077C735.283 414.136 726.069 469.286 723.274 480.351C719.13 496.754 715.045 513.288 709.932 529.421C707.597 536.79 704.509 543.902 702.175 551.262C696.944 549.867 690.795 543.402 685.69 540.223C678.81 535.939 672.919 532.052 665.237 529.13C653.902 536.578 645.761 541.886 632.366 544.938C630.153 548.133 628.24 550.785 626.42 554.229C629.372 554.002 632.314 553.794 635.257 553.464L639.043 563.201C649.773 556.551 650.073 556.402 662.93 559.321C666.747 560.188 674.013 562.007 677.209 563.798C685.78 568.599 704.666 583.34 709.171 591.214C715.693 603.066 722.046 615.332 721.114 629.259C720.811 633.78 721.566 636.883 720.22 641.466C714.943 659.433 705.469 664.996 688.111 668.784L694.849 675.619C701.512 674.678 717.201 672.764 722.808 670.521C728.805 668.122 734.804 662.677 742.221 660.358C767.645 666.39 759.84 651.61 756.914 635.72C756.298 632.376 758.198 625.69 757.941 622.084C756.802 616.181 754.147 591.685 758.885 587.74C776.429 574.481 831.087 547.287 852.119 545.085C856.132 544.369 865.781 543.034 868.656 546.249C883.24 563.999 895.717 580.49 908.375 599.751C914.217 608.639 922.149 619.194 926.911 628.514C929.576 631.446 946.344 656.362 947.63 659.451C948.651 661.903 948.718 664.564 948.591 667.182C947.997 679.472 944.702 691.559 943.795 703.835C946.049 701.405 947.755 698.968 951.021 698.412C956.198 699.446 961.212 714.803 963.218 719.579C971.336 738.911 978.579 758.728 985.597 778.466C988.548 787.662 987.748 809.981 986.909 819.858C981.393 833.11 963.963 851.861 953.382 860.851C950.197 863.557 922.063 868.035 919.971 866.581C908.719 858.761 897.664 861.616 884.146 863.263C879.774 863.796 868.263 872.057 863.464 873.588C849.418 879.473 817.811 891.495 803.979 892.401C798.24 892.777 767.192 880.595 761.825 878.072C758.662 873.584 756.332 870.605 754.323 865.462C737.277 860.957 731.627 855.988 712.161 854.755C707.736 851.637 699.325 845.303 695.025 843.201C678.235 834.996 659.084 830.59 641.214 825.106C632.021 822.285 621.615 818.844 612.258 816.966C608.781 816.267 600.892 817.288 597.331 817.924C587.158 819.739 577.03 828.275 567.915 832.07C567.709 842.496 566.853 851.752 565.561 862.108C568.671 864.171 576.793 870.228 579.869 872.597C582.019 887.177 576.784 910.963 577.402 926.843C577.721 935.05 577.749 948.558 577.283 956.612C576.961 962.165 560.621 981.194 555.688 983.862C548.457 987.772 533.581 988.975 525.163 991.003C508.737 994.103 490.316 997.599 473.639 997.606C467.513 997.608 454.959 988.529 451.18 983.857C448.061 983.221 441.379 981.701 438.475 981.399C421.652 978.441 414.155 978.142 400.841 965.744C398.773 956.396 397.412 950.394 393.636 941.495C392.808 940.269 391.949 937.86 390.822 936.452C388.67 933.762 386.179 931.202 384.596 928.127C382.729 924.499 381.326 917.072 379.528 913.803C372.76 901.493 370.363 891.806 356.668 886.527C354.527 887.132 346.722 890.338 345.074 890.444C328.235 891.529 307.242 887.32 290.699 884.284C286.118 883.443 271.158 878.828 267.416 876.183C257.241 868.267 249.827 856.197 243.178 845.367C237.76 836.541 243.288 809.677 232.018 807.303C223.221 803.314 231.861 766.227 232.73 757.268C232.915 754.424 236.418 728.912 237.073 726.739C237.558 718.219 240.125 705.488 242.189 697.25C243.523 689.105 246.826 676.879 247.645 669.326C251.861 630.44 261.759 630.425 297.932 624.751C264.307 606.215 231.16 575.872 210.12 543.766C203.432 533.562 183.946 497.746 184.672 486.691C185.763 484.765 191.81 483.121 194.126 482.464C216.724 476.063 238.676 465.81 260.939 458.714C259.178 453.737 255.868 435.369 255.007 429.926C242.88 425.843 230.858 421.846 218.507 418.463C209.902 416.106 201.101 414.321 192.547 411.82C189.834 411.027 185.895 410.006 184.643 407.313C180.738 398.911 199.747 341.307 203.66 330.967C208.058 319.345 213.236 307.68 218.568 296.462C220.787 290.4 224.548 284.354 227.498 278.684C239.053 256.469 253.392 240.981 270.409 223.101C272.94 220.442 273.358 219.919 276.667 219.912C281.797 222.458 286.065 225.385 290.722 228.667C302.642 237.068 314.812 245.28 326.631 253.816C333.638 246.765 349.726 233.605 358.017 227.106C356.338 216.539 351.697 203.161 347.975 192.996C345.252 185.56 341.882 179.048 340.539 171.214Z"/><path fill="#272423" d="M926.911 628.514C923.127 627.096 915.692 613.377 912.344 609.984C905.714 603.265 868.438 552.044 868.656 546.249C883.24 563.999 895.717 580.49 908.375 599.751C914.217 608.639 922.149 619.194 926.911 628.514Z"/><path fill="#272423" d="M218.568 296.462C220.787 290.4 224.548 284.354 227.498 278.684C239.053 256.469 253.392 240.981 270.409 223.101C272.94 220.442 273.358 219.919 276.667 219.912C276.317 220.793 275.618 222.349 274.972 223.013C260.287 238.091 246.918 254.193 234.938 271.51C231.849 275.975 221.875 294.394 218.568 296.462Z"/><path fill="#3C3938" d="M758.885 587.74C776.429 574.481 831.087 547.287 852.119 545.085C850.484 547.633 838.067 551.088 834.483 552.477C809.033 562.338 783.986 573.809 760.495 587.719C760.193 587.898 759.014 587.749 758.885 587.74Z"/><path fill="#272423" d="M393.636 941.495C399.084 944.82 402.402 958.19 404.146 964.189C409.066 967.354 412.025 971.094 416.527 974.173C421.224 977.384 434.351 977.338 438.475 981.399C421.652 978.441 414.155 978.142 400.841 965.744C398.773 956.396 397.412 950.394 393.636 941.495Z"/><path fill="#272423" d="M232.73 757.268C233.971 758.346 234.404 759.388 234.55 761.041C235.581 772.674 227.067 796.551 231.439 806.028C231.559 806.288 231.672 806.552 231.791 806.813L232.018 807.303C223.221 803.314 231.861 766.227 232.73 757.268Z"/><path fill="#272423" d="M237.073 726.739C237.558 718.219 240.125 705.488 242.189 697.25C243.353 700.792 241.676 725.438 238.394 726.935L237.073 726.739Z"/><path fill="#3C3938" d="M354.828 178.057C359.733 176.595 364.366 174.58 369.282 173.109C381.664 169.403 393.778 165.969 406.32 162.66C448.818 151.446 493.831 149.835 537.203 156.509C550.85 158.609 565.29 163.342 578.553 167.045C574.639 190.083 571.162 217.397 565.65 239.479C574.186 245.629 586.596 250.045 596.766 257.641C611.786 246.802 632.493 231.51 645.87 218.765C655.897 228.6 659.768 233.087 668.201 243.891C676.965 245.336 701.005 289.446 700.582 299.413C708.25 316.606 713.788 333.986 714.688 352.973L714.646 353.806C712.558 355.353 695.691 360.091 691.982 361.196C683.76 363.725 674.132 366.946 665.914 369.059C667.215 375.42 669.659 380.394 671.227 386.294C673.649 395.171 676.644 405.972 677.769 415.021C682.193 415.558 686.355 415.573 690.797 415.541C700.64 415.47 710.468 415.772 720.304 416.091C720.364 427.424 719.881 442.908 718.683 454.199L718.341 457.162C717.798 466.933 715.275 491.911 711.697 499.406C706.894 509.468 701.923 528.224 697.053 537.18C687.605 531.266 679.214 528.091 669.929 522.829L669.856 522.35C670.564 522.024 671.496 521.656 672.083 521.144C676.165 517.586 680.078 477.462 680.957 469.818C674.803 462.862 654.089 451.333 645.588 446.604C639.348 448.508 634.143 452.548 630.335 453.754L630.01 453.222C633.277 443.048 636.21 430.668 639.468 421.325C644.225 419.728 646.622 418.582 651.017 416.249C654.575 413.577 656.119 412.107 659.28 408.925C656.422 399.916 651.066 391.187 645.571 383.563C649.438 384.157 652.776 384.543 656.675 384.909L650.755 382.066C647.103 380.417 642.951 378.66 639.394 376.911C641.825 384.048 651.034 402.794 649.288 409.106C648.164 410.515 648.155 410.553 646.729 411.638C631.836 420.719 613.631 413.431 599.565 406.37C597.84 406.274 595.795 401.994 593.911 400.539C588.909 396.678 582.919 394.28 577.676 390.921L537.505 365.231C526.999 358.513 517.685 350.266 507.409 343.301L506.37 343.912L505.563 343.642C505.238 339.695 502.271 340.319 498.801 336.733C497.036 335.501 496.928 335.365 494.89 334.83C499.797 345.83 503.857 357.046 507.982 368.359C514.304 385.695 522.961 403.407 515.403 421.947C514.218 424.506 512.081 429.326 509.469 430.437C505.738 431.09 498.412 430.871 494.356 430.849C485.382 423.27 478.258 419.454 470.686 409.866C458.642 394.615 444.616 380.201 432.788 364.536C434.362 361.79 440.904 350.09 442.725 348.553C443.04 347.657 443.709 346.457 443.264 345.908C439.421 341.165 412.819 326.926 408.129 325.77C401.79 328.136 385.342 348.539 379.439 354.182C378.021 355.538 376.718 358.007 375.298 359.137L377.964 367.301C379.261 371.122 382.999 382.8 384.57 385.758C386.501 385.923 387.243 385.819 389.197 385.63C388.112 388.687 385.342 399.35 385.292 402.358C383.953 405.122 382.287 408.092 380.752 410.805C378.689 414.455 376.538 420.949 374.617 424.171C369.231 433.202 362.099 444.488 354.581 451.71C349.455 456.633 342.238 461.161 337.162 466.017C340.861 464.538 344.587 463.102 348.185 461.392C349.278 476.488 349.218 488.654 343.075 503.165L334.926 506.493C332.632 503.151 331.718 501.487 329.896 497.845C327 491.594 323.847 483.846 321.237 477.911C318.662 472.054 303.924 461.55 298.094 457.945C296.043 458.398 294.271 459.028 292.43 460.053C285.053 464.16 253.114 486.611 249.551 492.677C246.507 497.86 249.905 535.827 252.525 542.326C253.72 545.289 256.383 548.162 258.641 550.403C263.233 554.96 293.881 580.65 298.523 582.44C306.297 585.437 316.893 583.951 325.25 585.066C319.249 594.516 309.784 610.358 304.904 620.179L304.174 619.657C302.29 618.33 296.401 614.863 294.119 613.749C289.69 611.587 283.02 605.765 279.049 604.098C268.361 599.61 267.056 594.719 259.578 587.793C235.277 565.284 214.462 540.562 201.107 509.956C198.745 503.972 196.917 499.261 195.051 493.094C211.622 488.378 235.734 478.65 252.09 472.163C255.375 470.524 262.088 468.175 266.045 466.434C268.017 465.614 269.956 464.901 270.887 462.998L270.605 462.296L269.157 462.793C268.982 462.365 265.56 448.709 265.544 448.503C265.017 441.913 265.976 429.645 263.315 423.657C261.295 422.284 258.282 421.996 255.773 421.52C250.402 419.718 244.461 418.306 238.969 416.803C226.863 413.49 215.208 409.121 203.484 404.674L196.212 401.325C197.403 392.478 198.904 381.198 201.063 372.623C203.089 364.086 206.291 355.613 208.491 347.158C217.126 313.966 235.696 283.784 256.541 256.876C262.231 249.531 272.492 240.18 279.303 233.462C298.448 244.515 310.521 253.004 328.52 265.788C333.889 269.352 340.826 274.281 346.492 277.018C344.583 275.033 342.715 273.068 340.73 271.156C337.685 268.497 335.548 266.69 332.907 263.661C341.241 252.952 355.438 240.696 366.228 232.444L369.662 238.239L371.172 241.352C371.559 242.712 371.44 242.83 372.463 243.739C373.092 242.523 372.772 242.565 372.385 240.834L371.117 237.839C365.444 218.218 359.448 197.882 354.828 178.057Z"/><path fill="#5E564A" d="M354.828 178.057C359.733 176.595 364.366 174.58 369.282 173.109C381.664 169.403 393.778 165.969 406.32 162.66C448.818 151.446 493.831 149.835 537.203 156.509C550.85 158.609 565.29 163.342 578.553 167.045C574.639 190.083 571.162 217.397 565.65 239.479C574.186 245.629 586.596 250.045 596.766 257.641C611.786 246.802 632.493 231.51 645.87 218.765C655.897 228.6 659.768 233.087 668.201 243.891C676.965 245.336 701.005 289.446 700.582 299.413C708.25 316.606 713.788 333.986 714.688 352.973C712.616 352.518 711.971 351.694 710.754 350.017C706.739 344.485 703.086 336.681 699.356 331.221C689.97 317.482 678.459 300.258 666.298 288.985C654.196 277.768 635.15 259.176 617.724 260.097C613.404 260.326 608.126 261.873 604.969 265.369C604.592 265.787 604.513 268.72 602.694 270.614C597.913 272.039 592.3 265.062 587.88 261.64C565.33 244.18 540.267 229.215 512.535 221.799C502.5 219.115 487.556 217.577 477.167 216.69C470.186 216.762 461.429 214.145 454.616 214.581C426.405 216.385 395.853 226.583 372.385 240.834L371.117 237.839C365.444 218.218 359.448 197.882 354.828 178.057Z"/><path fill="#272423" d="M668.201 243.891C676.965 245.336 701.005 289.446 700.582 299.413C691.885 280.167 680.435 261.097 668.201 243.891Z"/><path fill="#5E564A" d="M196.212 401.325C197.403 392.478 198.904 381.198 201.063 372.623C203.089 364.086 206.291 355.613 208.491 347.158C217.126 313.966 235.696 283.784 256.541 256.876C262.231 249.531 272.492 240.18 279.303 233.462C298.448 244.515 310.521 253.004 328.52 265.788C319.209 268.904 305.43 271.89 296.888 276.68C267.98 292.891 236.11 322.714 220.528 352.113C215.401 361.786 210.717 376.317 207.832 386.713C206.417 391.811 205.072 400.353 203.484 404.674L196.212 401.325Z"/><path fill="#272423" d="M651.017 416.249C661.179 436.709 680.278 466.313 702.408 473.891C712.15 468.31 712.224 464.925 718.341 457.162C717.798 466.933 715.275 491.911 711.697 499.406C706.894 509.468 701.923 528.224 697.053 537.18C687.605 531.266 679.214 528.091 669.929 522.829L669.856 522.35C670.564 522.024 671.496 521.656 672.083 521.144C676.165 517.586 680.078 477.462 680.957 469.818C674.803 462.862 654.089 451.333 645.588 446.604C639.348 448.508 634.143 452.548 630.335 453.754L630.01 453.222C633.277 443.048 636.21 430.668 639.468 421.325C644.225 419.728 646.622 418.582 651.017 416.249Z"/><path fill="#272423" d="M377.964 367.301C379.261 371.122 382.999 382.8 384.57 385.758C386.501 385.923 387.243 385.819 389.197 385.63C388.112 388.687 385.342 399.35 385.292 402.358C383.953 405.122 382.287 408.092 380.752 410.805C378.689 414.455 376.538 420.949 374.617 424.171C369.231 433.202 362.099 444.488 354.581 451.71C349.455 456.633 342.238 461.161 337.162 466.017C340.861 464.538 344.587 463.102 348.185 461.392C349.278 476.488 349.218 488.654 343.075 503.165L334.926 506.493C332.632 503.151 331.718 501.487 329.896 497.845C331.735 494.608 333.474 477.892 334.675 473.296C335.541 469.981 337.32 468.845 337.996 465.94C337.55 465.338 335.72 462.897 336.031 462.272C339.012 456.294 342.505 450.65 345.035 444.327C346.339 442.498 349.125 440.304 350.308 438.565C359.879 424.485 365.887 407.443 370.453 391.126C372.535 383.685 370.729 371.986 377.964 367.301Z"/><path fill="#272423" d="M432.788 364.536C434.362 361.79 440.904 350.09 442.725 348.553C444.278 349.986 448.889 353.209 449.832 354.573C455.87 363.295 459.66 373.497 465.834 382.196C473.025 392.946 480.236 401.474 488.762 411.197C493.566 416.677 498.524 419.842 503.601 424.764C504.127 425.274 504.773 428.317 504.962 429.202C506.524 430.817 507.121 430.432 509.469 430.437C505.738 431.09 498.412 430.871 494.356 430.849C485.382 423.27 478.258 419.454 470.686 409.866C458.642 394.615 444.616 380.201 432.788 364.536Z"/><path fill="#5E564A" d="M515.403 421.947C507.719 417.188 507.952 407.879 506.512 399.892C501.915 374.395 489.736 352.992 477.081 330.925C476.454 329.833 477.159 327.345 477.809 326.24C482.786 323.212 491.355 331.583 494.89 334.83C499.797 345.83 503.857 357.046 507.982 368.359C514.304 385.695 522.961 403.407 515.403 421.947Z"/><path fill="#5E564A" d="M670.266 386.567L671.227 386.294C673.649 395.171 676.644 405.972 677.769 415.021C682.193 415.558 686.355 415.573 690.797 415.541C700.64 415.47 710.468 415.772 720.304 416.091C720.364 427.424 719.881 442.908 718.683 454.199C714.812 453.131 711.341 443.778 707.379 440.032C699.734 432.804 691.375 429.509 682.085 425.07C679.935 424.043 671.428 421.535 671.214 420.853C669.018 413.838 669.429 393.215 670.266 386.567Z"/><path fill="#272423" d="M255.773 421.52C259.024 415.898 258.797 400.563 267.067 404.832C269.692 406.188 269.466 413.997 269.816 416.611C270.304 430.005 272.919 442.096 276.702 454.888C279.272 463.577 281.093 467.619 270.71 469.976C269.056 468.796 267.57 467.783 266.045 466.434C268.017 465.614 269.956 464.901 270.887 462.998L270.605 462.296L269.157 462.793C268.982 462.365 265.56 448.709 265.544 448.503C265.017 441.913 265.976 429.645 263.315 423.657C261.295 422.284 258.282 421.996 255.773 421.52Z"/><path fill="#5E564A" d="M646.729 411.638C643.88 409.179 642.132 398.613 640.387 394.214C636.467 384.331 631.463 376.656 625.615 367.919C623.277 364.425 618.958 358.379 621.361 354.227C629.166 349.105 651.109 378.158 650.755 382.066C647.103 380.417 642.951 378.66 639.394 376.911C641.825 384.048 651.034 402.794 649.288 409.106C648.164 410.515 648.155 410.553 646.729 411.638Z"/><path fill="#5E564A" d="M252.09 472.163L252.407 473.309C248.136 479.715 208.165 494.971 201.107 509.956C198.745 503.972 196.917 499.261 195.051 493.094C211.622 488.378 235.734 478.65 252.09 472.163Z"/><path fill="#5E564A" d="M366.228 232.444L369.662 238.239L371.172 241.352C356.519 250.546 347.653 253.254 342.5 270.272C342.429 270.507 341.042 271.039 340.73 271.156C337.685 268.497 335.548 266.69 332.907 263.661C341.241 252.952 355.438 240.696 366.228 232.444Z"/><path fill="#272423" d="M670.266 386.567L668.969 386.863C664.307 383.865 659.72 374.108 659.913 368.646C662.404 364.006 679.491 361.035 684.812 360.111C687.529 359.639 689.494 360.133 691.982 361.196C683.76 363.725 674.132 366.946 665.914 369.059C667.215 375.42 669.659 380.394 671.227 386.294L670.266 386.567Z"/><path fill="#272423" d="M498.801 336.733C505.487 338.387 515.089 348.62 521.767 352.319C532.414 358.215 542.344 365.444 552.442 372.141C565.958 381.103 579.957 389.407 593.232 398.774C595.789 400.578 598.739 401.261 601.132 403.435L601.568 404.617C600.691 405.67 600.722 405.628 599.565 406.37C597.84 406.274 595.795 401.994 593.911 400.539C588.909 396.678 582.919 394.28 577.676 390.921L537.505 365.231C526.999 358.513 517.685 350.266 507.409 343.301L506.37 343.912L505.563 343.642C505.238 339.695 502.271 340.319 498.801 336.733Z"/><path fill="#070708" d="M579.208 324.177C582.831 327.088 608.602 349.412 609.112 351.441L608.104 351.988L608.19 352.971L609.483 353.061C609.733 357.635 604.735 368.441 603.029 373.119C602.717 373.974 600.412 373.789 599.698 373.704C597.776 373.9 595.317 375.498 594.05 375.436C589.414 375.208 584.035 374.138 579.278 373.62L579.817 372.627C578.511 370.913 566.907 374.288 564.142 371.116C561.606 368.207 558.092 361.38 557.734 357.884C555.636 353.673 549.285 343.717 549.246 339.948C552.08 336.133 573.697 325.978 579.208 324.177Z"/><path fill="#272423" d="M599.698 373.704C597.776 373.9 595.317 375.498 594.05 375.436C589.414 375.208 584.035 374.138 579.278 373.62L579.817 372.627C578.511 370.913 566.907 374.288 564.142 371.116C561.606 368.207 558.092 361.38 557.734 357.884C561.316 363.788 560.783 366.997 566.223 368.867L566.577 369.642L565.453 370.676C565.512 370.737 596.435 373.186 599.698 373.704Z"/><path fill="#3C3938" d="M561.584 337.49C567.259 334.065 569.723 333.005 575.769 330.471C584.271 336.402 590.608 340.924 598.523 347.644C600.481 349.337 602.588 351.227 604.569 352.863L600.73 364.979C600.606 365.928 599.563 368.358 599.158 369.392C591.125 367.99 575.336 366.774 569.066 365.213C567.202 363.7 553.583 342.086 553.127 339.738C555.115 338.666 556.978 339.195 559.542 338.246L561.584 337.49Z"/><path fill="#272423" d="M599.158 369.392C591.125 367.99 575.336 366.774 569.066 365.213C567.202 363.7 553.583 342.086 553.127 339.738C555.115 338.666 556.978 339.195 559.542 338.246C565.749 349.674 591.561 358.4 600.215 364.615L600.73 364.979C600.606 365.928 599.563 368.358 599.158 369.392Z"/><path fill="#5E564A" d="M561.584 337.49C567.259 334.065 569.723 333.005 575.769 330.471C584.271 336.402 590.608 340.924 598.523 347.644C592.452 352.912 581.314 341.361 574.499 340.545C567.823 339.745 566.41 344.285 561.584 337.49Z"/><path fill="#5E564A" d="M524.559 273.811C536.453 272.918 543.858 279.822 548.852 289.759C555.502 302.991 553.582 312.929 539.618 319.325C522.711 323.858 511.582 298.466 512.082 284.493C515.738 278.273 517.171 274.94 524.559 273.811Z"/><path fill="#5E564A" d="M361.118 304.274C364.819 304.529 368.951 304.061 371.279 307.88C377.087 317.406 377.356 347.846 360.481 345.536C357.729 345.159 354.483 341.876 352.956 339.346L352.563 339.378L352.548 341.584C350.787 352.017 334.213 341.051 340.766 330.381C345.783 322.212 347.143 330.358 351.896 328.282C354.552 319.821 351.356 309.539 361.118 304.274Z"/><path fill="#5E564A" d="M291.519 364.438C295.345 364.442 299.437 365.011 300.894 369.179C304.745 380.194 305.846 402.869 293.337 408.658C287.312 409.031 284.755 407.73 282.859 401.456C279.974 391.907 281.748 369.402 291.519 364.438Z"/><path fill="#5E564A" d="M559.966 279.575C576.799 277.186 585.329 301.171 572.053 311.335C569.639 311.852 566.743 312.601 564.271 311.854C554.65 308.943 551.424 295.815 553.789 287.108C554.837 283.251 556.577 281.521 559.966 279.575Z"/><path fill="#5E564A" d="M314.825 353.279C327.341 352.921 328.201 377.343 318.545 384.492C305.104 385.047 306.515 360.657 314.825 353.279Z"/><path fill="#5E564A" d="M592.661 294.812L592.898 294.795C602.799 294.039 605.944 306.717 599.75 313.753C596.968 313.878 595.192 314.147 593.261 311.805C588.995 306.631 587.057 299.575 592.661 294.812Z"/><path fill="#5E564A" d="M630.882 311.036C638.326 310.807 644.73 324.066 639.421 330.22C638.11 330.273 635.864 330.446 634.808 329.281C631.46 325.589 628.784 319.856 628.398 314.856C628.282 313.358 629.883 311.994 630.882 311.036Z"/><path fill="#5E564A" d="M279.537 410.259C285.875 409.606 290.245 419.463 291.687 424.617C292.178 426.37 291.13 427.944 290.165 429.309C283.353 429.494 278.773 420.983 277.559 415.054C277.173 413.171 278.406 411.637 279.537 410.259Z"/><path fill="#E5BD9A" d="M514.449 360.55C513.967 358.782 513.117 356.681 513.698 355.077C517.173 357.525 522.382 361.078 526.155 363.134L526.808 362.169C532.088 363.489 551.574 376.064 553.672 380.572C556.265 381.597 558.322 383.115 560.656 384.649C566.964 386.943 588.046 396.391 589.139 403.064L589.242 403.661C599.408 409.384 607.114 414.975 618.399 419.087C621.641 420.268 628.188 420.37 629.749 421.503C629.73 425.619 628.64 433.968 627.858 438.112C625.922 451.938 620.415 469.997 620.025 483.649C619.461 503.39 633.827 525.09 622.164 544.968C621.547 546.625 616.935 554.631 615.62 555.066C607.23 557.837 600.752 570.934 593.203 574.909C572.815 585.642 550.355 591.838 527.724 595.71C519.828 596.935 511.912 597.319 503.941 597.889C503.979 602.139 502.191 600.708 500.426 604.322C496.487 601.389 495.602 601.944 490.585 602.236C490.95 600.893 491.704 599.657 492.363 598.417C468.578 599.558 442.726 591.908 420.448 584.438C421.261 580.96 421.758 578.856 422.147 575.293C421.066 572.349 418.726 560.073 417.379 555.332C411.503 550.48 396.556 544.327 389.326 541.922C381.544 539.333 368.084 539.311 359.742 539.827C357.64 544.256 354.004 549.79 356.146 554.425C357.678 557.89 359.342 564.368 360.789 568.356C358.24 567.998 355.764 567.639 353.199 567.38C348.016 571.813 335.873 576.637 329.118 579.519C324.1 581.851 308.831 580.431 303.05 579.181C301.693 578.888 301.923 578.597 301.282 577.315L300.081 576.887C298.58 576.79 297.089 576.468 295.855 577.169L296.633 578.925L296.007 579.17C293.347 577.257 285.474 569.059 284.394 565.931C280.042 561.846 273.901 558.64 270.542 553.321C268.506 551.483 261.356 544.45 260.62 542.432C255.801 529.226 253.243 508.9 252.388 495.091C258.176 491.124 263.589 486.036 269.402 482.177C277.348 476.902 285.882 470.951 294.474 466.871L300.139 464.425C303.737 467.366 314.017 475.644 316.159 479.409C322.232 490.084 325.406 502.065 332.511 512.644C336.609 511.204 342.72 509.277 346.503 507.518C349.917 492.396 353.791 487.388 354.444 471.233C354.614 467.354 355.174 462.588 355.527 458.657C361.963 452.209 367.959 442.498 374.743 435.54L377.642 431.403C381.128 422.356 389.035 409.669 393.298 400.466C395.992 394.65 397.829 389.148 399.874 383.123C407.947 381.341 415.511 379.759 423.644 378.303C425.625 375.954 427.166 373.262 428.775 370.641C436.313 379.3 443.297 385.949 450.452 395.431C454.104 398.12 466.885 410.908 469.577 414.536C476.415 423.45 479.413 427.576 489.688 433.689C491.093 434.525 493.554 436.106 495.121 436.404C498.241 436.996 499.883 435.807 502.377 438.287C517.444 438.713 521.015 426.781 524.005 414.344C528.596 395.249 520.233 379.174 514.449 360.55Z"/><path fill="#BD966F" d="M514.449 360.55C513.967 358.782 513.117 356.681 513.698 355.077C517.173 357.525 522.382 361.078 526.155 363.134L526.808 362.169C532.088 363.489 551.574 376.064 553.672 380.572C556.265 381.597 558.322 383.115 560.656 384.649C566.964 386.943 588.046 396.391 589.139 403.064L589.242 403.661C599.408 409.384 607.114 414.975 618.399 419.087C621.641 420.268 628.188 420.37 629.749 421.503C629.73 425.619 628.64 433.968 627.858 438.112C627.836 437.824 627.814 437.536 627.793 437.247C627.655 436.96 627.517 436.672 627.38 436.384C626.162 436.411 619.535 436.689 618.619 436.416C611.102 434.179 602.894 431.346 595.571 428.791C587.027 425.586 578.926 421.337 570.841 417.138C563.318 413.231 555.765 409.321 548.287 405.336C541.133 401.524 534.155 397.413 526.952 393.704C530.075 411.515 526.013 432.417 518.201 448.533C510.349 451.109 492.096 450.618 485.016 446.582C465.692 435.493 450.389 417.464 435.026 401.627C427.436 393.803 418.73 386.8 407.663 386.697C401.255 395.995 395.93 405.855 389.987 415.421C387.184 419.934 382.591 429.757 377.642 431.403C381.128 422.356 389.035 409.669 393.298 400.466C395.992 394.65 397.829 389.148 399.874 383.123C407.947 381.341 415.511 379.759 423.644 378.303C425.625 375.954 427.166 373.262 428.775 370.641C436.313 379.3 443.297 385.949 450.452 395.431C454.104 398.12 466.885 410.908 469.577 414.536C476.415 423.45 479.413 427.576 489.688 433.689C491.093 434.525 493.554 436.106 495.121 436.404C498.241 436.996 499.883 435.807 502.377 438.287C517.444 438.713 521.015 426.781 524.005 414.344C528.596 395.249 520.233 379.174 514.449 360.55Z"/><path fill="#272423" d="M560.656 384.649C566.964 386.943 588.046 396.391 589.139 403.064L589.242 403.661C582.803 399.807 565.766 389.237 560.656 384.649Z"/><path fill="#272423" d="M469.577 414.536C476.415 423.45 479.413 427.576 489.688 433.689C491.093 434.525 493.554 436.106 495.121 436.404C498.241 436.996 499.883 435.807 502.377 438.287C501.372 438.365 497.922 438.623 497.08 438.476C487.222 436.752 475.327 425.112 469.133 418.242C469.655 416.91 469.556 415.96 469.577 414.536Z"/><path fill="#272423" d="M526.155 363.134L526.808 362.169C532.088 363.489 551.574 376.064 553.672 380.572C549.085 378.969 530.828 366.516 526.155 363.134Z"/><path fill="#272423" d="M450.452 395.431C454.104 398.12 466.885 410.908 469.577 414.536C469.556 415.96 469.655 416.91 469.133 418.242C465.23 414.31 451.823 399.959 450.452 395.431Z"/><path fill="#BD966F" d="M422.147 575.293C429.977 577.13 440.01 582.075 448.139 584.77C467.047 591.041 486.145 593.395 505.997 593.832C512.121 594.021 518.611 592.662 524.669 592.884C525.249 592.905 527.15 595.05 527.724 595.71C519.828 596.935 511.912 597.319 503.941 597.889C503.979 602.139 502.191 600.708 500.426 604.322C496.487 601.389 495.602 601.944 490.585 602.236C490.95 600.893 491.704 599.657 492.363 598.417C468.578 599.558 442.726 591.908 420.448 584.438C421.261 580.96 421.758 578.856 422.147 575.293Z"/><path fill="#272423" d="M492.363 598.417C495.856 598.07 500.357 598.022 503.941 597.889C503.979 602.139 502.191 600.708 500.426 604.322C496.487 601.389 495.602 601.944 490.585 602.236C490.95 600.893 491.704 599.657 492.363 598.417Z"/><path fill="#BD966F" d="M270.542 553.321C275.462 555.541 280.614 561.225 285.344 563.902C294.088 568.851 304.229 570.22 313.952 572.009C325.741 574.466 346.101 561.336 355.889 554.943C355.975 554.77 356.061 554.598 356.146 554.425C357.678 557.89 359.342 564.368 360.789 568.356C358.24 567.998 355.764 567.639 353.199 567.38C348.016 571.813 335.873 576.637 329.118 579.519C324.1 581.851 308.831 580.431 303.05 579.181C301.693 578.888 301.923 578.597 301.282 577.315L300.081 576.887C298.58 576.79 297.089 576.468 295.855 577.169L296.633 578.925L296.007 579.17C293.347 577.257 285.474 569.059 284.394 565.931C280.042 561.846 273.901 558.64 270.542 553.321Z"/><path fill="#272423" d="M301.282 577.315C309.527 578.13 321.788 578.367 329.118 579.519C324.1 581.851 308.831 580.431 303.05 579.181C301.693 578.888 301.923 578.597 301.282 577.315Z"/><path fill="#272423" d="M284.394 565.931C290.078 568.888 294.848 573.457 300.081 576.887C298.58 576.79 297.089 576.468 295.855 577.169L296.633 578.925L296.007 579.17C293.347 577.257 285.474 569.059 284.394 565.931Z"/><path fill="#BD966F" d="M294.474 466.871L300.139 464.425C303.737 467.366 314.017 475.644 316.159 479.409C322.232 490.084 325.406 502.065 332.511 512.644C336.609 511.204 342.72 509.277 346.503 507.518C345.031 512.175 341.571 521.567 335.754 521.112C331.282 518.123 321.937 496.193 318.576 490.337C312.599 479.922 306.68 470.483 294.474 466.871Z"/><path fill="#BD966F" d="M355.527 458.657C361.963 452.209 367.959 442.498 374.743 435.54C373.074 441.548 364.408 455.206 360.791 460.66C358.95 463.438 355.209 468.325 354.444 471.233C354.614 467.354 355.174 462.588 355.527 458.657Z"/><path fill="#070708" d="M500.831 517.044C516.759 517.188 537.782 515.42 551.734 523.427C556.199 534.132 557.144 548.805 550.931 558.71C537.749 579.72 500.812 588.755 478.393 584.708C462.891 581.575 451.135 578.241 438.9 567.25C430.927 560.27 421.851 549.35 421.217 538.173C420.28 521.62 443.772 520.621 454.865 519.436C470.486 517.768 485.376 517.295 500.831 517.044Z"/><path fill="#DB9687" d="M476.541 548.652C476.575 548.646 476.608 548.64 476.642 548.634C503.873 547.572 518.573 549.655 539.742 565.612C528.94 572.923 511.488 579.191 498.467 580.339C483.424 582.784 457.608 577.94 445.804 568.336C442.557 565.695 438.425 561.09 435.468 557.932C449.931 552.892 461.308 550.007 476.541 548.652Z"/><path fill="#FEFEFE" d="M500.884 519.678C509.46 519.165 551.029 519.95 548.318 533.005C546.214 536.137 534.689 547.167 531 548.244C529.079 547.267 529.863 547.94 528.638 546.061C528.214 542.928 528.54 541.182 531.921 540.502L531.709 539.794C530.827 539.135 529.613 538.207 528.496 538.117C514.879 537.027 497.744 538.744 484.23 539.815C464.977 541.363 443.713 547.991 426.541 541.342C427.235 538.175 428.093 532.695 430.523 530.705C444.357 519.38 483.873 520.063 500.884 519.678Z"/><path fill="#FEFEFE" d="M422.546 507.144C363.087 518.431 364.079 439.428 401.534 416.874C407.087 413.53 418.521 412.794 422.233 417.801C434.666 425.208 440.645 435.877 444.348 449.387C444.981 451.697 446.896 454.804 445.97 457.101C448.522 461.597 449.231 465.97 449.483 471.089C450.868 480.518 450.424 486.801 444.529 494.592C438.263 502.874 431.789 504.338 422.546 507.144Z"/><path fill="#5E564A" d="M431.728 461.89L433.579 463.887C437.651 465.282 445.058 468.964 448.793 471.283L449.483 471.089C450.868 480.518 450.424 486.801 444.529 494.592C438.263 502.874 431.789 504.338 422.546 507.144L422.989 505.973C422.374 505.562 412.355 504.273 409.982 503.663C407.437 502.132 403.56 498.758 401.618 496.465C396.842 490.827 395.248 489.088 395.466 482.06C396.26 481.435 404.114 468.733 404.999 467.044C410.769 464.042 411.822 463.758 418.025 462.494C422.447 461.592 429.719 462.962 431.728 461.89Z"/><path fill="#FEFEFE" d="M418.629 466.606C429.36 466.162 426.457 467.693 430.008 476.532C433.033 476.71 436.054 476.944 439.075 477.169C439.519 479.567 439.711 482.592 439.938 485.066C437.917 485.73 435.825 486.503 433.808 487.211C436.699 495.022 436.295 495.386 428.637 498.22L423.731 494.242L422.39 493.667C420.797 494.217 418.942 497.089 417.734 498.486C414.5 497.875 409.835 497.694 408.84 494.213C409.886 491.205 410.765 490.346 408.865 487.694C406.995 487.258 406.33 487.216 404.681 486.167C403.914 483.965 405.887 478.651 407.483 477.046C410.523 477.105 411.762 476.968 414.715 476.59C416.155 473.039 416.77 470.186 418.629 466.606Z"/><path fill="#3C3938" d="M409.646 441.356C417.576 440.078 424.033 439.862 432.007 439.913C437.018 443.734 442.17 451.791 445.97 457.101C448.522 461.597 449.231 465.97 449.483 471.089L448.793 471.283C445.058 468.964 437.651 465.282 433.579 463.887L431.728 461.89C429.719 462.962 422.447 461.592 418.025 462.494C411.822 463.758 410.769 464.042 404.999 467.044C404.114 468.733 396.26 481.435 395.466 482.06C394.984 478.63 395.092 475.08 394.618 471.693C393.163 461.287 402.831 448.91 409.646 441.356Z"/><path fill="#5E564A" d="M428.968 458.253C408.412 465.535 408.884 441.234 423.506 445.361C427.313 446.436 428.73 450.668 429.962 454.093C428.556 456.693 428.615 455.704 428.968 458.253Z"/><path fill="#FEFEFE" d="M429.962 454.093C431.806 452.223 431.305 452.148 433.449 451.668C435.698 452.55 437.184 455.78 438.58 458.017C436.951 459.953 435.272 462.023 433.579 463.887L431.728 461.89L428.968 458.253C428.615 455.704 428.556 456.693 429.962 454.093Z"/><path fill="#3C3938" d="M422.546 507.144C363.087 518.431 364.079 439.428 401.534 416.874C407.087 413.53 418.521 412.794 422.233 417.801C383.733 409.503 365.785 489.061 407.977 504.477L409.982 503.663C412.355 504.273 422.374 505.562 422.989 505.973L422.546 507.144Z"/><path fill="#CECDCD" d="M409.982 503.663C412.355 504.273 422.374 505.562 422.989 505.973C417.211 506.867 413.494 505.811 407.977 504.477L409.982 503.663Z"/><path fill="#FEFEFE" d="M568.312 422.817C593.978 422.639 598.58 450.892 602.757 470.984C603.757 475.796 596.142 492.302 594.14 497.726C586.25 502.159 569.119 509.615 560.351 505.392C562.606 504.788 563.8 504.637 566.137 504.334L562.441 503.771C560.942 503.698 558.743 504.331 557.136 504.328C543.14 504.3 538.899 493.597 538.436 482.103C537.742 470.048 539.585 466.958 543.919 455.581C543.793 453.332 545.043 450.929 545.71 448.798C548.521 439.812 553.312 435.405 560.481 429.896C561.677 428.976 563.575 427.609 564.278 426.261C564.999 424.223 566.011 424.028 568.312 422.817Z"/><path fill="#5E564A" d="M538.436 482.103L538.775 482.333C539.029 482.286 539.283 482.239 539.537 482.192C540.354 478.954 544.903 472.673 547.614 471.012C550.376 469.32 562.181 467.814 565.684 468.999C566.495 469.274 566.298 469.199 567.202 468.693C568.914 469.426 568.784 469.407 569.956 470.884L570.424 471.486C571.446 472.784 572.55 473.511 573.469 474.773C575.996 478.241 577.258 481.747 580.195 484.902C577.23 493.785 572.073 501.229 562.441 503.771C560.942 503.698 558.743 504.331 557.136 504.328C543.14 504.3 538.899 493.597 538.436 482.103Z"/><path fill="#FEFEFE" d="M556.631 472.922C558.547 473.378 558.906 473.405 560.681 474.407C562.183 476.298 562.188 478.496 562.557 480.98C565.27 481.724 567.076 481.46 568.481 484.302C568.19 485.363 567.061 486.591 566.309 487.061C561.528 490.049 564.411 492.628 559.926 495.033C557.671 494.922 558.681 495.284 556.848 493.75C555.653 492.434 555.716 492.497 554.158 491.63C552.185 491.403 550.684 492.444 548.871 493.357L545.233 489.022L545.646 488.495C550.181 482.634 544.665 481.436 548.542 478.398C553.74 478.412 553.428 477.025 556.631 472.922Z"/><path fill="#3C3938" d="M563.442 446.504C570.544 449.325 574.773 453 580.344 458.253C581.07 465.745 582.284 477.963 580.195 484.902C577.258 481.747 575.996 478.241 573.469 474.773C572.55 473.511 571.446 472.784 570.424 471.486L569.956 470.884C568.784 469.407 568.914 469.426 567.202 468.693C566.298 469.199 566.495 469.274 565.684 468.999C562.181 467.814 550.376 469.32 547.614 471.012C544.903 472.673 540.354 478.954 539.537 482.192C539.283 482.239 539.029 482.286 538.775 482.333L538.436 482.103C537.742 470.048 539.585 466.958 543.919 455.581C548.855 448.39 555.435 447.816 563.442 446.504Z"/><path fill="#FEFEFE" d="M567.202 468.693C566.804 466.171 566.64 467.328 567.548 465.075C569.122 463.98 568.247 464.254 570.318 464.425C572.055 465.668 571.404 464.877 572.222 466.974C571.88 469.382 571.886 468.714 569.956 470.884C568.784 469.407 568.914 469.426 567.202 468.693Z"/><path fill="#5E564A" d="M560.119 452.557C569.817 451.975 571.327 460.038 560.935 464.135C552.129 464.101 547.1 455.481 560.119 452.557Z"/><path fill="#3C3938" d="M568.312 422.817C593.978 422.639 598.58 450.892 602.757 470.984C603.757 475.796 596.142 492.302 594.14 497.726C586.25 502.159 569.119 509.615 560.351 505.392C562.606 504.788 563.8 504.637 566.137 504.334C574.066 501.66 582.27 498.562 587.459 491.688C593.216 483.668 595.677 471.188 593.795 461.526C590.891 446.616 583.923 422.474 564.278 426.261C564.999 424.223 566.011 424.028 568.312 422.817Z"/><path fill="#BD966F" d="M266.739 497.276C276.182 491.479 284.895 490.409 295.946 492.411C305.794 494.194 315.195 509.502 321.112 516.884C326.452 523.546 324.446 546.507 322.466 555.012C318.064 556.514 308.241 559.731 303.903 560.241C305.679 559.201 308.063 557.698 309.905 556.94C311.341 549.558 309.483 533.089 303.458 528.286C302.764 528.806 302.161 529.387 301.555 530.006L301.029 529.209C301.052 528.635 301.079 526.469 300.861 526.055C297.946 520.524 293.331 513.084 289.857 508.098C287.76 505.752 285.089 501.446 281.68 501.327C279.975 501.267 279.594 500.959 278.392 500.207C277.002 502.756 275.592 505.425 274.15 507.933C275.573 501.832 275.529 498.925 279.784 494.128C274.324 494.938 272.013 495.692 266.739 497.276Z"/><path fill="#070708" d="M266.739 497.276C276.182 491.479 284.895 490.409 295.946 492.411C305.794 494.194 315.195 509.502 321.112 516.884C326.452 523.546 324.446 546.507 322.466 555.012C318.064 556.514 308.241 559.731 303.903 560.241C305.679 559.201 308.063 557.698 309.905 556.94C319.69 552.537 319.986 553.568 318.899 542.338C318.215 536.834 318.155 531.085 317.405 525.193C316.653 522.858 312.463 516.551 310.847 513.647C309.018 515.96 305.223 521.243 302.711 522.404C302.385 519.643 306.612 512.642 308.17 509.771C300.817 499.545 298.72 494.894 285.506 494.047C282.311 495.973 280.22 496.997 278.392 500.207C277.002 502.756 275.592 505.425 274.15 507.933C275.573 501.832 275.529 498.925 279.784 494.128C274.324 494.938 272.013 495.692 266.739 497.276Z"/><path fill="#272423" d="M317.405 525.193C321.663 529.691 322.731 537.251 318.899 542.338C318.215 536.834 318.155 531.085 317.405 525.193Z"/><path fill="#272423" d="M485.8 486.979C491.527 486.705 511.071 486.914 514.519 492.181C515.048 502.053 495.239 501.428 488.95 501.731C482.035 502.079 472.148 502.618 465.356 500.98C461.11 499.956 460.07 498.339 458.158 494.761C466.872 487.987 475.205 487.39 485.8 486.979Z"/><path fill="#FEFEFE" d="M480.751 489.588C490.003 488.71 504.279 488.636 512.67 493.014L508.788 497.389C504.013 498.946 499.091 499.265 494.116 499.593C487.547 499.959 467.054 501.339 462.725 497.024C461.972 490.78 476.449 490.022 480.751 489.588Z"/><path fill="#A27357" d="M385.821 511.656C392.318 510.915 399.001 516.591 403.856 520.534C393.808 529.866 388.991 529.962 376.315 528.198C369.007 527.305 362.051 526.569 354.717 525.922C364.944 513.489 371.491 514.238 385.821 511.656Z"/><path fill="#E5BD9A" d="M385.057 514.373L390.561 514.105C393.889 516.091 397.441 518.493 400.723 520.614C397.193 523.248 393.817 525.176 390.012 527.386C385.646 526.763 381.412 526.484 377.025 526.156C371.27 525.353 365.489 524.765 359.711 524.138C368.672 516.059 373.106 515.333 385.057 514.373Z"/><path fill="#A27357" d="M588.11 510.032C591.37 509.712 605.827 515.959 608.406 518.183C607.793 521.945 595.669 528.158 591.559 527.795C587.508 527.254 571.473 525.126 569.746 522.435C570.299 519.664 571.815 517.243 573.151 514.707C577.242 512.937 583.815 511.068 588.11 510.032Z"/><path fill="#E5BD9A" d="M588.172 512.141C591.333 511.855 602.401 517.099 606.779 518.589C603.144 520.572 595.651 525.637 592.092 525.158C585.491 524.292 578.683 523.088 572.19 521.633C573.116 519.612 574.061 517.78 575.079 515.81C579.222 514.35 583.889 513.25 588.172 512.141Z"/><path fill="#A27357" d="M587.427 514.961L588.293 515.669C589.174 518.071 589.041 518.455 588.965 521.093C587.097 519.217 587.443 517.702 587.427 514.961Z"/><path fill="#272423" d="M483.741 479.008C488.99 478.961 491.93 479.862 496.886 481.3C493.548 481.562 490.609 481.6 487.268 481.639C483.86 481.751 480.907 482.197 477.704 481.194L477.528 480.553C479.917 479.324 481.122 479.344 483.741 479.008Z"/><path fill="#3C3938" d="M420.56 848.153C413.314 831.535 418.272 793.97 419.374 775.368C420.431 757.542 421.751 736.964 425.744 719.529C426.678 715.45 430.408 708.499 434.559 707.252C456.685 700.606 480.484 696.396 503.319 692.695C504.607 693.192 507.824 694.496 508.708 695.439C512.896 699.91 516.531 709.009 519.137 714.567C522.96 723.74 528.106 732.691 531.55 742.016C539.163 762.627 547.829 783.375 554.273 804.372C556.317 811.032 558.642 819.734 559.578 826.457C559.54 838.481 558.152 854.031 557.022 866.044C539.241 870.103 519.946 875.76 501.77 878.094C493.015 879.218 479.724 878.113 469.888 879.158C460.013 880.207 444.112 881.005 434.591 879.188C429.865 868.993 425.047 858.446 420.56 848.153Z"/><path fill="#272423" d="M429.671 825.37C430.424 822.594 434.21 819.075 436.314 816.959C464.333 788.785 509.346 782.441 539.875 810.456C541.399 811.854 550.497 822.12 550.446 822.089L551.57 821.528C554.104 821.944 555.748 825.635 559.578 826.457C559.54 838.481 558.152 854.031 557.022 866.044C539.241 870.103 519.946 875.76 501.77 878.094C493.015 879.218 479.724 878.113 469.888 879.158C460.013 880.207 444.112 881.005 434.591 879.188C429.865 868.993 425.047 858.446 420.56 848.153C423.253 845.588 423.111 839.16 425.395 834.716C426.665 832.245 429.125 827.766 429.671 825.37Z"/><path fill="#070708" d="M429.671 825.37C428.545 826.142 428.816 825.99 427.608 826.51L427.492 825.76C433.294 815.024 437.63 809.27 447.606 802.06C469.635 786.137 500.864 782.877 525.249 795.231C537.178 801.274 544.081 810.946 551.57 821.528L550.446 822.089C550.497 822.12 541.399 811.854 539.875 810.456C509.346 782.441 464.333 788.785 436.314 816.959C434.21 819.075 430.424 822.594 429.671 825.37Z"/><path fill="#272423" d="M861.436 563.384C863.411 563.383 863.82 563.279 865.678 564.081C874.428 573.97 884.398 587.2 892.927 598.146C907.685 617.083 927.498 640.723 937.775 662.076C941.792 670.421 937.19 694.273 933.894 699.947C927.557 710.857 880.93 755.031 871.208 757.842C867.481 754.544 864.982 753.256 860.718 750.762C857.906 748.942 853.943 746.516 851.874 743.95C830.382 717.288 814.655 686.585 798.605 656.599C788.2 637.16 779.764 620.615 772.974 599.718C794.101 586.136 821.138 575.251 845.125 567.859C849.83 566.408 856.74 564.151 861.436 563.384Z"/><path fill="#070708" d="M897.911 646.743C908.557 645.316 927.099 652.917 933.823 660.76L933.543 661.03C928.696 658.288 923.749 655.324 918.489 653.48C888.524 642.974 860.607 659.722 849.857 688.055C845.095 700.86 842.916 711.912 844.124 725.647C843.286 724.804 842.531 722.398 842.411 721.19C840.347 700.388 845.471 681.873 858.618 665.598C869.346 652.317 881.468 648.39 897.911 646.743Z"/><path fill="#3C3938" d="M742.574 668.291C746.688 669.724 748.627 670.588 753.039 671.386C756.259 671.968 768.888 666.598 769.744 669.157C773.254 679.654 778.294 689.971 780.092 700.91C780.391 702.755 778.955 710.734 778.624 712.951C772.078 717.209 762.556 727.695 755.928 733.268C749.721 738.486 743.181 744.112 736.935 749.349C735.769 750.327 732.942 753.415 732.619 754.587C731.28 759.446 725.349 774.588 725.705 778.778C726.487 787.979 734.574 809.317 738.368 817.824C744.202 830.705 752.137 846.461 759.152 858.695C753.977 856.968 747.041 854.465 742.163 853.486C725.055 850.055 712.199 846.547 699.782 833.598C696.836 830.526 692.367 827.278 689.252 823.857C687.995 823.01 683.184 818.548 681.827 817.323C684.432 822.032 686.255 825.021 689.322 829.436C678.771 826.024 667.85 823.048 657.507 819.603C638.791 812.723 627.129 808.049 607.121 807.995C590.114 807.95 581.544 814.589 565.967 816.483C558.469 793.254 546.138 769.612 537.799 746.551C540.757 745.764 561.343 741.12 562.484 740.089L561.942 738.616C565.436 739.208 600.624 781.434 605.924 787.221C607.655 789.11 609.111 791.419 611.943 791.287C612.882 790.116 612.799 789.998 614.171 789.501C614.65 790.615 614.308 790.138 615.185 790.942C618.352 790.341 630.983 783.46 634.467 781.673L683.137 756.278C698.055 748.519 713.47 741.619 728.157 732.915C734.811 728.972 735.24 723.566 737.102 715.974C732.968 710.129 704.027 687.417 695.766 680.51C707.788 680.44 714.75 678.293 726.284 677.057C723.46 681.784 721.012 685.902 718.511 690.837C725.836 683.409 733.504 673.04 742.574 668.291Z"/><path fill="#272423" d="M738.368 817.824C744.202 830.705 752.137 846.461 759.152 858.695C753.977 856.968 747.041 854.465 742.163 853.486C725.055 850.055 712.199 846.547 699.782 833.598C696.836 830.526 692.367 827.278 689.252 823.857C702.083 826.168 710.662 836.667 724.68 833.292C727.51 832.611 729.996 832.814 732.811 831.45C739.009 828.444 736.107 822.738 738.368 817.824Z"/><path fill="#070708" d="M743.768 679.243L744.388 679.499C737.093 688.501 733.521 693.539 728.581 704.198L727.979 704.254C727.833 703.315 727.711 703.315 727.975 702.501C732.175 689.597 731.922 685.785 743.768 679.243Z"/><path fill="#070708" d="M587.233 791.155L601.523 791.098C594.534 793.509 585.693 795.496 578.398 797.245C573.838 799.032 571.096 799.981 566.371 801.226C571.344 798.061 581.488 793.762 587.233 791.155Z"/><path fill="#070708" d="M585.513 779.751C589.286 779.451 590.397 779.4 594.164 779.806C589.951 780.555 585.478 781.593 581.27 782.49L574.517 784.328C578.736 781.61 580.421 780.17 585.513 779.751Z"/><path fill="#FEFEFE" d="M603.886 636.532C606.324 638.497 609.247 640.74 611.567 642.783C612.533 646.207 613.429 649.584 614.32 653.028L620.037 656.158L570.197 681.295C564.81 683.98 552.298 689.323 548.42 691.808C554.47 698.982 562.446 706.765 568.949 713.948L591.312 738.779C595.02 742.979 613.43 764.809 616.916 766.765C620.723 765.524 628.718 760.932 632.492 758.883L654.424 747.075C659.457 744.313 665.077 740.876 670.185 738.438L669.003 736.242C658.373 742.262 646.615 747.954 635.812 753.894C630.069 757.051 623.462 759.734 617.866 763.151L554.487 692.447C558.042 690.874 561.702 688.967 565.171 687.183C584.739 677.12 604.232 667.442 624.241 658.276C630.992 661.508 630.857 665.133 635.656 671.51C649.31 676.29 654.847 676.533 668.337 672.119C672.496 669.896 673.139 669.677 677.802 670.269C683.593 675.744 690.434 680.359 696.408 685.663C707.041 695.104 719.257 704.628 728.518 715.369C695.943 736.811 658.106 754.184 623.436 772.201C620.196 773.884 616.54 775.441 613.176 776.926C610.803 773.986 608.09 771.112 605.601 768.243C589.487 749.665 573.579 730.933 556.947 712.81C545.418 700.249 533.334 687.897 522.554 674.694C531.085 670.447 559.307 653.918 567.102 653.209C568.43 655.399 565.614 662.188 568.371 665.098C574.507 671.574 596.324 657.93 601.575 653.874C606.973 649.705 605.007 640.979 595.392 641.326L594.558 640.314C597.766 639.144 600.854 638.111 603.886 636.532Z"/><path fill="#FEFEFE" d="M603.886 636.532C606.324 638.497 609.247 640.74 611.567 642.783C612.533 646.207 613.429 649.584 614.32 653.028L620.037 656.158L570.197 681.295C564.81 683.98 552.298 689.323 548.42 691.808C554.47 698.982 562.446 706.765 568.949 713.948L591.312 738.779C595.02 742.979 613.43 764.809 616.916 766.765C620.723 765.524 628.718 760.932 632.492 758.883L654.424 747.075C659.457 744.313 665.077 740.876 670.185 738.438C674.102 736.472 678.05 734.545 681.851 732.365C680.794 731.864 681.212 732.241 680.603 731.229L681.937 728.97C685.933 725.418 706.499 716.129 712.814 712.204C703.331 702.196 689.313 691.123 678.8 681.496C677.221 680.391 670.353 673.854 668.337 672.119C672.496 669.896 673.139 669.677 677.802 670.269C683.593 675.744 690.434 680.359 696.408 685.663C707.041 695.104 719.257 704.628 728.518 715.369C695.943 736.811 658.106 754.184 623.436 772.201C620.196 773.884 616.54 775.441 613.176 776.926C610.803 773.986 608.09 771.112 605.601 768.243C589.487 749.665 573.579 730.933 556.947 712.81C545.418 700.249 533.334 687.897 522.554 674.694C531.085 670.447 559.307 653.918 567.102 653.209C568.43 655.399 565.614 662.188 568.371 665.098C574.507 671.574 596.324 657.93 601.575 653.874C606.973 649.705 605.007 640.979 595.392 641.326L594.558 640.314C597.766 639.144 600.854 638.111 603.886 636.532Z"/><defs><linearGradient id="gradient_0" gradientUnits="userSpaceOnUse" x1="708.05786" y1="695.60297" x2="671.8446" y2="709.56677"><stop offset="0" stop-color="black"/><stop offset="1" stop-color="#222221"/></linearGradient></defs><path fill="url(#gradient_0)" d="M678.8 681.496C683.301 680.499 684.051 684.718 688.568 686.531C697.204 694.225 709.385 704.965 717.124 713.245C707.564 718.889 691.837 727.423 681.851 732.365C680.794 731.864 681.212 732.241 680.603 731.229L681.937 728.97C685.933 725.418 706.499 716.129 712.814 712.204C703.331 702.196 689.313 691.123 678.8 681.496Z"/><path fill="#272423" d="M668.337 672.119C672.496 669.896 673.139 669.677 677.802 670.269C676.147 670.625 674.016 670.911 672.69 671.829C677.345 675.728 685.039 681.908 688.568 686.531C684.051 684.718 683.301 680.499 678.8 681.496C677.221 680.391 670.353 673.854 668.337 672.119Z"/><path fill="#272423" d="M681.937 728.97L680.603 731.229C681.212 732.241 680.794 731.864 681.851 732.365C678.05 734.545 674.102 736.472 670.185 738.438L669.003 736.242C670.458 735.147 679.734 730.198 681.937 728.97Z"/><path fill="#CECDCD" d="M609.237 684.45L610.14 684.591C615.911 689.042 633.179 709.028 637.229 715.02C635.243 716.44 632.266 718.064 630.098 719.333C627.331 716.698 622.721 712.21 619.104 711.154C617.48 710.679 618.067 711.251 617.046 710.182C617.852 708.072 619.625 704.044 616.849 702.719C615.655 703.305 615.474 703.394 614.198 703.741L613.09 702.78C612.829 701.242 612.89 700.942 612.074 699.593C605.658 696.674 608.834 699.916 603.506 700.851C600.353 699.66 599.774 699.677 597.29 702.517C594.16 706.095 599.222 706.373 593.63 710.051L593.409 711.898L593.803 714.27C596.825 716.809 596.557 721.061 600 723.464C601.358 722.694 601.63 722.389 603.183 722.236C604.551 723.216 605.661 729.019 606.549 731.639L602.595 734.017C592.755 724.351 581.242 714.462 573.875 702.945C581.788 696.702 599.672 687.759 609.237 684.45Z"/><path fill="#272423" d="M681.291 700.823C683.232 702.177 686.271 704.665 687.487 706.677L686.886 707.311C685.984 706.808 685.131 706.263 684.287 705.669C683.982 707.289 683.838 708.616 683.662 710.24C681.877 711.188 681.562 711.537 679.563 711.194C675.452 708.459 676.298 703.695 681.282 702.627L681.291 700.823Z"/><path fill="#FEFEFE" d="M680.345 703.881C682.318 704.895 681.564 704.183 682.691 706.095C682.737 708.174 682.547 708.312 681.498 710.207C679.502 709.813 679.17 709.172 678.57 707.442C678.797 705.415 679.032 705.408 680.345 703.881Z"/><path fill="#070708" d="M675.28 708.858C677.199 710.379 677.809 710.701 677.283 713.225C675.749 715.231 673.559 715.949 671.146 716.278L670.487 715.721L671.382 714.466C673.665 713.99 675.257 714.116 676.121 711.815C674.031 710.881 671.169 712.228 668.009 711.756L667.721 710.77C668.625 708.53 671.334 706.146 673.832 706.582C674.563 708.222 674.179 708.214 675.28 708.858Z"/><path fill="#FEFEFE" d="M673.832 706.582C674.563 708.222 674.179 708.214 675.28 708.858C673.705 709.492 671.683 710.519 670.093 710.399C670.854 708.897 672.566 707.891 673.832 706.582Z"/><path fill="#272423" d="M643.216 722.943C644.367 722.878 643.966 722.89 645.137 723.31C646.313 725.959 644.24 724.073 644.856 726.76C644.982 727.31 647.229 727.924 647.377 729.482C643.241 729.313 645.57 725.642 639.598 729.219C640.46 730.313 640.61 730.703 641.25 731.96L640.892 732.532C638.385 730.758 637.627 729.235 635.993 726.695L643.216 722.943Z"/><path fill="#070708" d="M619.155 735.024C621.109 735.104 621.932 735.286 623.255 736.492C622.489 738.425 620.839 738.719 618.868 740.788L619.106 741.448L618.884 741.149L619.688 741.384C621.959 740.648 622.82 739.612 624.625 738.004C623.975 741.706 621.597 743.989 617.717 742.477C615.42 739.419 617.041 737.574 619.155 735.024Z"/><path fill="#070708" d="M687.487 696.972C690.196 697.217 693.242 698.929 694.769 701.199L694.513 702.278C691.832 702.053 691.872 698.231 687.909 698.829L686.732 700.785L690.232 704.78L690.113 705.238C687.546 704.36 684.505 702.467 684.228 699.572C684.822 699.547 685.417 699.521 686.012 699.496L687.487 696.972Z"/><path fill="#070708" d="M660.716 712.485C661.281 713.036 661.067 712.668 661.117 713.697L658.827 715.45C659.075 716.619 662.423 720.746 663.54 722.599L663.889 723.188C661.241 721.178 660.475 720.406 658.258 718.051C657.752 717.483 657.403 717.346 656.745 716.913C654.775 717.415 654.6 717.43 652.561 717.521L652.7 716.956C655.091 715.078 657.973 713.823 660.716 712.485Z"/><path fill="#070708" d="M613.575 738.21C614.567 738.313 614.104 738.139 614.947 738.777C613.995 739.733 613.868 739.784 613.209 740.938C614.101 742.231 615.06 743.428 616.026 744.665L615.861 745.341L614.542 744.903C611.989 742.211 611.646 743.231 609.213 741.487C609.891 740.108 612.126 739.068 613.575 738.21Z"/><path fill="#272423" d="M567.745 881.941L568.732 881.769C570.832 884.113 569.998 954.771 566.189 962.13C564.448 965.493 555.422 974.355 552.046 977.846C542.883 980.273 533.713 982.928 524.422 984.827C516.903 986.364 478.868 991.829 473.175 989.66C463.942 986.143 458.478 980.104 454.449 971.191C449.072 959.598 429.026 905.418 432.374 894.751C434.875 893.536 457.301 894.403 463.003 893.77C480.039 891.88 497.83 891.969 514.938 889.942C521.575 889.156 527.218 887.627 533.715 886.167C545.27 885.222 556.311 883.83 567.745 881.941Z"/><path fill="#E5BD9A" d="M384.433 717.663C382.856 717.311 379.556 716.908 377.769 716.764C365.1 715.738 349.069 706.545 343.807 694.573C339.193 684.077 337.392 667.494 337.329 655.942C337.235 638.737 338.692 618.925 351.618 605.982C352.624 604.93 354.345 604.154 355.823 604.184C371.795 604.509 388.194 605.142 404.124 605.979C416.013 607.57 421.697 609.655 429.144 619.723C436.5 629.668 441.76 639.155 446.802 650.437C444.305 654.769 441.563 659.794 438.839 663.924C433.324 658.677 427.974 653.511 422.76 647.967C418.874 643.836 415.928 640.141 410.024 639.45L409.019 639.325C408.8 639.302 408.581 639.279 408.362 639.256C394.889 637.998 380.268 638.255 366.897 636.535C364.893 636.278 359.988 633.769 358.089 632.806C360.67 635.133 363.079 637.284 365.769 639.485C379.287 641.439 395.658 641.44 410.233 643.537C416.738 644.16 430.324 659.182 434.518 664.072C440.697 671.276 442.194 676.025 445.609 684.503C443.232 689.04 441.496 691.756 438.089 695.684C431.53 688.194 426.457 685.728 415.991 684.395C405.816 681.463 363.232 672.648 357.456 683.711L357.607 684.354C359.241 684.035 359.083 683.649 360.195 683.184C374.524 677.19 399.581 681.827 413.839 685.745C425.071 689.752 431.222 691.474 437.868 701.434C433.41 702.3 426.992 703.748 422.628 704.238C421.072 708.683 420.923 721.882 420.138 727.866C410.829 728.773 393.93 731.497 385.342 725.626C383.777 724.556 380.687 721.152 379.468 719.699L379.491 718.996L379.96 718.915C381.166 718.824 382.339 718.755 383.545 718.688L384.433 717.663Z"/><path fill="#BD966F" d="M404.124 605.979C416.013 607.57 421.697 609.655 429.144 619.723C436.5 629.668 441.76 639.155 446.802 650.437C444.305 654.769 441.563 659.794 438.839 663.924C433.324 658.677 427.974 653.511 422.76 647.967C418.874 643.836 415.928 640.141 410.024 639.45L409.019 639.325C408.8 639.302 408.581 639.279 408.362 639.256C411.574 636.096 417.151 633.46 419.356 629.551C425.755 618.202 411.604 610.439 404.124 605.979Z"/><path fill="#BD966F" d="M413.839 685.745C425.071 689.752 431.222 691.474 437.868 701.434C433.41 702.3 426.992 703.748 422.628 704.238C421.072 708.683 420.923 721.882 420.138 727.866C410.829 728.773 393.93 731.497 385.342 725.626C383.777 724.556 380.687 721.152 379.468 719.699L379.491 718.996L379.96 718.915C381.166 718.824 382.339 718.755 383.545 718.688L384.433 717.663L389.178 717.526C392.673 716.752 394.601 717.283 399.154 715.54C404.946 713.323 414.589 709.877 417.319 703.825C420.215 697.405 416.26 691.868 414.217 686.712L413.839 685.745Z"/><path fill="#272423" d="M384.433 717.663L389.178 717.526L390.233 719.014C388.076 720.488 382.784 719.288 379.96 718.915C381.166 718.824 382.339 718.755 383.545 718.688L384.433 717.663Z"/><path fill="#BD966F" d="M410.233 643.537C416.738 644.16 430.324 659.182 434.518 664.072C440.697 671.276 442.194 676.025 445.609 684.503C443.232 689.04 441.496 691.756 438.089 695.684C431.53 688.194 426.457 685.728 415.991 684.395C421.586 679.928 424.789 677.678 422.315 670.285C419.259 661.152 413.9 652.952 410.474 644.171L410.233 643.537Z"/><path fill="#272423" d="M950.009 709.057C951.574 710.369 953.991 716.194 954.881 718.346C964.945 742.675 976.421 770.624 979.564 796.779C978.956 810.015 970.084 827.153 960.037 835.743C940.791 852.199 939.432 859.722 921.333 838.802C905.252 822.122 886.596 791.857 878.996 770.112C893.901 760.502 940.931 723.78 950.009 709.057Z"/><path fill="#BD966F" d="M615.489 602.171C622.744 592.703 639.344 567.61 652.01 566.498C672.855 564.668 694.018 584.09 704.945 600.209C708.022 604.749 711.814 616.953 712.319 622.645C713.301 633.742 710.703 646.432 703.026 655.008C689.82 659.775 673.083 665.014 659.366 668.348C652.202 669.869 643.131 669.968 637.347 664.817C635.334 663.024 633.365 659.756 631.843 657.46C641.391 657.897 645.527 655.313 654.348 651.688C662.645 647.648 671.6 645.003 679.172 639.925L679.132 639.592C669.668 642.896 658.518 647.275 649.125 650.146C637.318 654.927 631.62 655.754 620.378 649.534C618.386 646.467 617.212 642.677 615.956 639.2C621.212 630.69 624.935 624.718 631.73 617.458C637.241 613.07 643.156 609.784 649.129 606.109C660.117 599.35 666.536 593.297 678.993 589.534C676.166 589.032 673.313 588.646 670.47 588.236C670.328 585.825 670.428 585.244 669.491 583.093L668.829 582.893C667.403 584.662 667.124 586.804 666.55 589.07C664.549 591.284 655.921 597.02 652.856 599.154L626.564 617.481C622.147 624.785 617.831 630.587 614.572 638.62C610.912 635.785 605.532 631.821 604.245 627.325C602.706 621.95 612.419 607.033 615.489 602.171Z"/><path fill="#E5BD9A" d="M631.73 617.458C643.707 620.842 654.205 621.771 657.214 635.765C655.674 642.615 653.863 645.036 649.125 650.146C637.318 654.927 631.62 655.754 620.378 649.534C618.386 646.467 617.212 642.677 615.956 639.2C621.212 630.69 624.935 624.718 631.73 617.458Z"/><path fill="#E5BD9A" d="M615.489 602.171C619.561 601.568 627.771 600.052 631.212 602.599C633.792 607.806 627.905 612.749 626.564 617.481C622.147 624.785 617.831 630.587 614.572 638.62C610.912 635.785 605.532 631.821 604.245 627.325C602.706 621.95 612.419 607.033 615.489 602.171Z"/><path fill="#E5BD9A" d="M631.843 657.46C641.391 657.897 645.527 655.313 654.348 651.688L654.65 652.255C658.211 658.781 663.644 660.786 659.366 668.348C652.202 669.869 643.131 669.968 637.347 664.817C635.334 663.024 633.365 659.756 631.843 657.46Z"/><path fill="#3C3938" d="M775.061 723.965C776.143 730.561 763.009 744.109 764.596 754.815C765.878 763.471 767.667 770.315 769.999 778.978C772.957 789.97 776.306 800.3 781.291 810.588C785.456 817.476 788.148 825.067 792.215 831.964C799.035 843.529 803.783 858.645 817.207 864.621C824.411 867.829 831.768 865.435 838.503 863.006C827.781 863.596 819.302 864.545 812.043 854.937C808.129 849.757 804.522 844.134 800.908 838.752C813.944 838.254 833.465 834.971 844.346 841.795C850.639 845.741 866.345 851.118 873.512 852.979L874.292 853.178C874.648 853.093 875.025 853.184 875.391 853.207L874.943 854.013C858.114 865.217 827.089 879.108 806.671 880.307C794.114 881.045 781.582 877.705 772.519 868.481C756.842 852.525 744.364 823.826 736.399 802.888C734.178 796.305 730.867 789.082 730.589 782.098C729.639 758.251 748.226 747.139 764.059 733.265C767.532 730.221 771.893 727.476 775.061 723.965Z"/><path fill="#3C3938" d="M764.753 631.154C767.155 634.076 773.518 649.057 775.831 653.352C793.198 685.602 807.884 719.308 826.237 751.057C831.07 759.416 848.017 763.799 855.817 772.022C867.332 784.163 870.246 797.647 878.186 811.917C887.157 828.211 895.632 840.34 908.472 853.607C904.259 853.267 896.596 853.647 892.134 853.735C883.134 853.674 875.422 849.66 866.972 846.768C858.293 843.686 848.204 841.589 841.311 835.003C837.395 831.262 834.715 824.769 831.941 820.103C819.821 799.706 809.979 778.059 801.225 756.043C799.454 751.59 797.451 747.215 795.81 742.712C793.662 734.952 791.491 726.135 786.904 719.463C785.39 717.261 779.829 727.118 779.074 728.327C780.194 725.076 783.458 710.674 784.173 709.553L784.883 710.446L785.332 710.373C786.952 697.876 784.741 692.059 779.448 680.821C778.502 678.813 776.228 675.626 775.796 673.656C772.357 657.95 766.48 647.69 764.753 631.154Z"/><path fill="#CECDCD" d="M513.786 613.509C515.768 614.773 517.711 616.098 519.662 617.41C521.077 618.435 524.79 621.116 525.717 622.291C532.753 631.198 542.685 647.836 547.401 657.925C540.322 661.088 533.356 664.764 526.353 667.818C521.624 669.734 518.397 671.301 513.858 673.659C513.32 677.608 513.027 680.154 512.918 684.117C515.5 689.355 554.229 730.04 560.772 736.54C554.018 737.969 542.643 740.987 536.098 743.237C533.621 736.925 512.741 687.635 510.987 686.066C504.016 686.12 495.986 689.557 489.041 690.815C474.257 693.493 460.121 696.467 445.487 699.9L448.498 693.277C449.15 689.087 449.512 682.281 449.553 678.163L446.602 668.551C448.778 662.205 450.717 655.57 452.79 649.157C451.539 642.23 447.879 640.506 447.724 633.681C452.946 628.071 457.324 621.534 463.517 615.111L474.746 621.462C485.045 627.421 495.114 633.323 505.29 639.496L513.786 613.509Z"/><path fill="#FEFEFE" d="M513.786 613.509C515.768 614.773 517.711 616.098 519.662 617.41C521.077 618.435 524.79 621.116 525.717 622.291C532.753 631.198 542.685 647.836 547.401 657.925C540.322 661.088 533.356 664.764 526.353 667.818C523.348 666.229 519.678 665.423 516.363 664.616C507.841 662.542 499.605 660.055 491.252 657.379L490.963 657.067C486.47 654.056 460.917 646.389 454.611 647.337L454.177 647.93C456.042 647.867 457.101 647.746 458.921 648.326C457.415 648.464 454.035 648.643 452.79 649.157C451.539 642.23 447.879 640.506 447.724 633.681C452.946 628.071 457.324 621.534 463.517 615.111L474.746 621.462C485.045 627.421 495.114 633.323 505.29 639.496L513.786 613.509Z"/><path fill="#AE4747" d="M447.724 633.681C450.876 635.297 450.451 638.139 451.474 641.334C454.118 641.189 456.657 641.275 459.061 640.277C459.432 639.368 459.513 639.379 459.644 638.429C460.07 635.933 459.637 636.074 461.068 634.537C465.803 633.682 472.702 637.566 477.367 639.662C476.117 641.873 474.298 644.876 473.265 647.114C474.969 648.763 476.826 650.651 478.641 652.139C481.223 651.072 484.822 649.152 487.343 649.358C490.027 651.095 490.127 653.773 490.963 657.067C486.47 654.056 460.917 646.389 454.611 647.337L454.177 647.93C456.042 647.867 457.101 647.746 458.921 648.326C457.415 648.464 454.035 648.643 452.79 649.157C451.539 642.23 447.879 640.506 447.724 633.681Z"/><path fill="#CECDCD" d="M463.517 615.111L474.746 621.462C468.209 626.334 461.82 631.126 455.416 636.171C456.894 637.142 458.011 638.158 459.644 638.429C459.513 639.379 459.432 639.368 459.061 640.277C456.657 641.275 454.118 641.189 451.474 641.334C450.451 638.139 450.876 635.297 447.724 633.681C452.946 628.071 457.324 621.534 463.517 615.111Z"/><path fill="#CECDCD" d="M513.786 613.509C515.768 614.773 517.711 616.098 519.662 617.41C515.748 623.958 512.933 631.358 508.603 637.49C507.948 638.419 506.248 638.751 505.29 639.496L513.786 613.509Z"/><path fill="#7A201F" d="M458.921 648.326C457.101 647.746 456.042 647.867 454.177 647.93L454.611 647.337C460.917 646.389 486.47 654.056 490.963 657.067L491.252 657.379C491.973 660.389 493.305 664.02 491.771 666.686C489.439 668.644 485.738 667.532 482.883 667.096C482.256 669.41 481.81 671.201 480.911 673.443C483.102 674.868 485.016 675.985 486.935 677.771C483.605 682.587 480.704 686.158 475.989 689.758C474.098 687.707 473.095 686.624 471.476 684.312C468.522 685.191 465.527 686.125 462.547 686.891C462.609 689.232 462.966 690.99 461.75 692.877C458.434 695.541 452.651 693.82 448.498 693.277C449.15 689.087 449.512 682.281 449.553 678.163L446.602 668.551C448.778 662.205 450.717 655.57 452.79 649.157C454.035 648.643 457.415 648.464 458.921 648.326Z"/><path fill="#CECDCD" d="M458.921 648.326C461.425 648.96 463.51 649.398 465.841 650.695C476.239 656.479 476.674 672.412 465.658 677.82C460.41 680.396 455.074 679.905 449.553 678.163L446.602 668.551C448.778 662.205 450.717 655.57 452.79 649.157C454.035 648.643 457.415 648.464 458.921 648.326Z"/><path fill="#3C3938" d="M392.713 825.547C396.651 814.487 400.097 808.804 411.929 804.799C411.446 812.305 410.602 833.366 412.256 840.291C415.092 852.164 427.029 871.566 433.748 881.894C431.253 885.21 429.444 890.408 427.816 894.37C429.426 899.094 429.55 905.426 430.768 910.433C432.404 917.16 434.239 923.798 436.041 930.475C436.559 932.394 438.319 937.967 438.609 939.632C442.48 949.016 446.172 962.475 449.827 972.608C437.652 970.538 418.282 972.4 411.473 959.308C400.036 937.319 397.731 911.56 388.227 888.791C385.667 882.658 382.804 875.678 382.578 868.827C382.849 860.481 386.347 849.417 388.446 841.227L389.314 838.647C390.049 834.362 391.5 829.763 392.713 825.547Z"/><path fill="#272423" d="M449.827 972.608C437.652 970.538 418.282 972.4 411.473 959.308C400.036 937.319 397.731 911.56 388.227 888.791C385.667 882.658 382.804 875.678 382.578 868.827C382.849 860.481 386.347 849.417 388.446 841.227C389.727 866.927 406.204 920.956 424.989 940.369C426.756 942.195 438.156 949.185 440.952 950.66C439.782 946.629 439.116 943.855 438.609 939.632C442.48 949.016 446.172 962.475 449.827 972.608Z"/><path fill="#272423" d="M392.713 825.547C396.106 831.128 393.366 834.191 389.314 838.647C390.049 834.362 391.5 829.763 392.713 825.547Z"/><path fill="#C16689" d="M264.431 736.859C282.772 744.928 309.174 749.99 329.069 753.608C333.363 754.389 341.287 756.202 345.334 756.354C344.772 758.717 342.802 764.022 344.101 766.196C345.436 768.431 348.136 767.836 349.19 769.137C349.196 769.145 350.265 798.646 350.848 804.9C349.583 806.01 347.942 805.622 346.287 805.408C340.851 805 331.647 804.515 326.471 803.61C303.517 799.597 277.884 792.784 256.81 782.953C258.095 778.117 258.636 772.562 259.405 767.563L263.286 743.159C263.634 741.099 263.963 738.883 264.431 736.859Z"/><path fill="#893B58" d="M264.431 736.859C282.772 744.928 309.174 749.99 329.069 753.608C333.363 754.389 341.287 756.202 345.334 756.354C344.772 758.717 342.802 764.022 344.101 766.196C345.436 768.431 348.136 767.836 349.19 769.137C349.196 769.145 350.265 798.646 350.848 804.9C349.583 806.01 347.942 805.622 346.287 805.408C343.626 793.6 339.396 783.611 337.735 771.133C314.79 763.185 289.297 763.413 269.354 747.509C268.198 746.586 264.406 743.51 263.286 743.159C263.634 741.099 263.963 738.883 264.431 736.859Z"/><path fill="#AE4747" d="M249.7 817.084C261.168 830.374 323.794 844.173 342.378 849.159C346.563 850.282 356.391 850.42 360.488 851.701C362.653 852.378 361.623 864.426 361.391 866.476C361.182 868.332 361.335 871.805 360.337 873.522C358.564 874.923 358.286 875.094 356.258 876.069C352.254 877.735 348.746 880.546 344.709 882.164C333.474 886.665 284.956 876.561 272.975 870.808C265.234 867.091 254.502 850.124 251.69 842.296C247.511 837.024 249.884 825.018 249.7 817.084Z"/><path fill="#7A201F" d="M249.7 817.084C261.168 830.374 323.794 844.173 342.378 849.159C346.563 850.282 356.391 850.42 360.488 851.701C362.653 852.378 361.623 864.426 361.391 866.476C361.182 868.332 361.335 871.805 360.337 873.522C358.564 874.923 358.286 875.094 356.258 876.069C357.365 874.206 357.158 875.171 357.012 873.096C355.644 870.485 352.974 869.419 350.662 867.766C338.029 858.735 324.234 855.897 309.909 850.982C290.099 844.184 270.619 836.187 252.821 824.936C252.004 830.776 251.705 836.408 251.69 842.296C247.511 837.024 249.884 825.018 249.7 817.084Z"/><path fill="#AE4747" d="M248.853 775.796C251.11 775.317 252.061 775.003 254.248 774.22C253.914 776.565 253.562 779.896 252.769 782.045C270.396 795.581 310.773 804.194 332.486 807.885C338.199 809.148 343.945 809.249 349.689 810.078C351.843 810.389 351.877 811.998 352.275 813.767C353.309 818.355 352.141 825.476 354.223 829.418C358.639 831.702 357.825 839.351 357.803 843.631C350.894 842.489 343.746 842.836 337.228 841.764C311.019 837.453 281.296 830.553 257.774 817.943C251.585 814.625 248.086 810.029 246.372 803.411C246.22 797.266 245.252 780.079 248.853 775.796Z"/><path fill="#7A201F" d="M246.372 803.411C252.973 808.092 259.199 812.318 266.529 815.912C291.822 828.313 325.997 833.889 354.048 833.123L354.938 832.536C354.792 831.004 354.722 830.893 354.223 829.418C358.639 831.702 357.825 839.351 357.803 843.631C350.894 842.489 343.746 842.836 337.228 841.764C311.019 837.453 281.296 830.553 257.774 817.943C251.585 814.625 248.086 810.029 246.372 803.411Z"/><path fill="#7A201F" d="M248.853 775.796C251.11 775.317 252.061 775.003 254.248 774.22C253.914 776.565 253.562 779.896 252.769 782.045C250.493 780.085 250.34 778.577 248.853 775.796Z"/><path fill="#BD966F" d="M785.926 726.51C789.17 732.082 790.997 739.479 793.531 745.422C798.386 756.806 802.513 768.607 808.059 779.668C813.743 791.003 818.806 802.645 824.584 813.924C828.144 820.876 832.374 827.509 835.869 834.51C829.342 833.438 824.905 833.437 818.306 833.674C811.274 833.763 806.132 835.108 798.32 834.649C796.499 831.725 795.547 829.121 793.675 825.794C781.727 804.555 770 776.332 769.469 751.921C769.307 744.494 781.515 733.898 785.926 726.51Z"/><path fill="#7A201F" d="M236.247 797.444C238.701 784.925 239.308 768.972 241.061 755.994C242.169 746.424 244.003 737.127 245.404 727.589C249.158 702.039 250.847 675.292 257.674 650.366C262.427 633.017 279.658 635.424 293.817 636.62C302.937 636.89 321.99 640.9 330.693 643.605C330.185 648.09 329.645 652.466 329.029 656.938C316.189 655.241 287.54 648.993 275.258 654.826C269.715 661.937 270.043 673.823 268.163 682.299C267.443 685.546 264.395 686.013 263.823 688.818C261.109 702.125 259.392 716.421 258.544 729.93L260.938 734.395C259.518 744.57 258.483 755.981 255.673 765.796C255.444 766.599 246.988 773 245.263 774.778C241.344 780.16 242.555 792.636 242.728 799.406L236.247 797.444Z"/><path fill="#AE4747" d="M236.247 797.444C238.701 784.925 239.308 768.972 241.061 755.994C242.169 746.424 244.003 737.127 245.404 727.589C249.158 702.039 250.847 675.292 257.674 650.366C262.427 633.017 279.658 635.424 293.817 636.62C292.903 639.015 288.517 641.482 286.338 642.537C277.693 646.726 270.377 643.822 266.692 654.188C259.687 673.889 256.147 694.286 252.746 714.8C249.769 732.748 244.966 756.688 245.263 774.778C241.344 780.16 242.555 792.636 242.728 799.406L236.247 797.444Z"/><path fill="#E5BD9A" d="M630.048 511.434C628.441 504.363 626.276 496.999 624.889 490.054C622.249 476.831 627.108 457.867 642.376 455.06C649.998 453.659 657.362 460.021 662.986 464.184C674.086 471.76 674.004 481.702 672.436 493.617C672.039 500.012 670.445 505.888 668.888 512.089C669.139 515.233 669.481 518.03 667.825 520.765C666.201 521.547 666.071 521.519 664.344 520.457L662.256 522.275C653.329 530.044 645.836 532.286 634.148 531.226C633.129 525.102 631.341 517.633 630.048 511.434Z"/><path fill="#BD966F" d="M630.048 511.434C635.655 519.527 636.764 522.03 645.931 526.347C650.958 525.673 655.417 525.142 660.013 522.909C660.823 522.516 661.392 522.423 662.256 522.275C653.329 530.044 645.836 532.286 634.148 531.226C633.129 525.102 631.341 517.633 630.048 511.434Z"/><path fill="#BD966F" d="M662.986 464.184C674.086 471.76 674.004 481.702 672.436 493.617C670.835 478.662 667.998 477.733 663.22 464.828L662.986 464.184Z"/><path fill="#272423" d="M664.344 520.457C666.803 517.005 667.317 515.881 668.888 512.089C669.139 515.233 669.481 518.03 667.825 520.765C666.201 521.547 666.071 521.519 664.344 520.457Z"/><path fill="#070708" d="M642.39 521.154C640.938 519.354 638.654 516.496 637.781 514.379C635.06 507.052 635.013 496.422 638.046 489.175C643.67 475.734 646.559 473.597 659.606 478.881C660.637 481.448 661.44 483.264 662.033 486L661.671 486.326L660.301 484.871C654.372 488.053 650.69 490.909 648.4 497.519C649.07 499.243 649.862 501.145 650.437 502.885L650.183 503.781C646.845 505.859 645.191 508.935 644.131 512.623C642.802 517.251 647.795 517.377 650.344 517.349L651.11 517.418L651.371 517.947C648.782 519.402 645.292 520.271 642.39 521.154Z"/><path fill="#BD966F" d="M649.193 480.384C653.516 481.028 658.932 480.106 660.301 484.871C654.372 488.053 650.69 490.909 648.4 497.519C646.535 494.65 644.75 493.551 642.02 491.493C643.977 487.096 646.27 484.148 649.193 480.384Z"/><path fill="#BD966F" d="M640.825 496.571C646.58 498.697 647.139 501.357 650.437 502.885L650.183 503.781C646.845 505.859 645.191 508.935 644.131 512.623C642.802 517.251 647.795 517.377 650.344 517.349C648.699 517.703 645.517 517.819 643.726 517.938C639.38 508.69 640.191 506.582 640.825 496.571Z"/><path fill="#272423" d="M785.573 652.436L786.328 650.987C782.745 640.347 761.511 604.827 765.308 596.418C771.201 583.37 826.715 564.173 841.777 559.264C846.916 557.589 855.305 554.834 860.365 557.659C861.001 558.014 861.121 558.373 861.49 558.958C860.751 559.526 861.213 559.355 860.334 559.342C849.972 559.193 776.664 589.226 769.858 596.153C769.39 596.63 768.979 597.114 768.558 597.633C771.096 608.691 777.478 622.136 782.312 632.671C797.927 666.698 815.987 700.655 836.013 732.313C839.421 737.702 842.889 744.843 847.887 748.573C852.119 751.343 863.949 757.742 866.704 761.368L866.643 762.351L865.371 762.982L864.42 763.694L864.348 764.055C861.854 765.61 859.325 766.917 856.737 768.3C850.659 763.301 839.13 758.023 831.717 752.639C831.22 752.118 831.32 751.168 831.508 750.558C828.646 750.356 824.601 741.847 823.046 739.214C808.957 714.722 796.199 688.94 784.468 663.231C776.08 644.85 762.257 622.699 762.6 602.433C767.246 618.583 777.755 636.999 785.573 652.436Z"/><path fill="#3C3938" d="M762.6 602.433C767.246 618.583 777.755 636.999 785.573 652.436C787.504 656.462 789.733 660.317 791.893 664.347C806.992 692.514 820.36 722.144 839.138 748.105C839.204 748.182 839.269 748.259 839.335 748.336C836.463 749.27 834.472 749.881 831.508 750.558C828.646 750.356 824.601 741.847 823.046 739.214C808.957 714.722 796.199 688.94 784.468 663.231C776.08 644.85 762.257 622.699 762.6 602.433Z"/><path fill="#3C3938" d="M831.717 752.639C837.546 750.138 843.443 751.507 848.879 754.209C853.661 756.653 857.554 758.936 861.762 762.304L864.348 764.055C861.854 765.61 859.325 766.917 856.737 768.3C850.659 763.301 839.13 758.023 831.717 752.639Z"/><path fill="#272423" d="M848.879 754.209C853.661 756.653 857.554 758.936 861.762 762.304C855.956 762.208 851.386 759.42 848.879 754.209Z"/><path fill="#3C3938" d="M389.929 768.898C398.972 768.723 407.721 768.589 416.723 767.608C415.549 778.307 413.102 783.708 412.806 796.496C408.598 798.141 398.159 803.58 396.009 807.437C388.557 820.808 384.579 835.58 380.934 850.339C379.336 856.808 376.28 863.362 374.905 870.053C381.071 882.375 385.905 896.392 389.894 909.625C390.696 912.286 390.772 913.872 392.038 916.477L391.844 916.861C386.174 903.612 379.77 890.594 371.932 878.567C365.741 869.067 368.539 865.23 368.08 855.11C367.909 851.345 363.241 841.818 361.626 837.713C364.15 830.847 366.078 825.665 369.575 819.149C365.144 820.405 364.296 825.961 360.775 827.948L359.607 827.618C357.172 824.543 357.785 821.662 357.71 817.49C364.606 813.635 377.743 804.062 382.407 797.52C383.417 796.102 384.456 793.144 385.072 791.412C386.791 785.014 389.388 775.316 389.929 768.898Z"/><path fill="#272423" d="M385.072 791.412C385.059 792.501 385.001 795.813 384.573 796.626C381.883 801.733 373.452 815.505 369.575 819.149C365.144 820.405 364.296 825.961 360.775 827.948L359.607 827.618C357.172 824.543 357.785 821.662 357.71 817.49C364.606 813.635 377.743 804.062 382.407 797.52C383.417 796.102 384.456 793.144 385.072 791.412Z"/><path fill="#E5BD9A" d="M362.447 552.14C362.642 551.104 363.276 547.549 364.067 547.171C375.448 541.74 404.435 550.934 410.988 559.413C422.463 570.711 415.695 593.471 402.796 601.198C388.482 600.304 380.055 601.116 366.2 601.328L367.298 595.98C369.909 580.625 368.996 566.449 362.447 552.14Z"/><path fill="#BD966F" d="M410.988 559.413C422.463 570.711 415.695 593.471 402.796 601.198C388.482 600.304 380.055 601.116 366.2 601.328L367.298 595.98C385.984 599.069 407.78 591.222 412.464 570.096C413.363 566.04 412.3 563.213 410.988 559.413Z"/><path fill="#FEFEFE" d="M360.142 717.754C364.071 720.215 368.198 722.46 372.247 724.726C382.577 728.81 389.759 736.736 401.828 735.691C407.691 735.183 413.508 734.542 419.361 733.91C418.505 743.6 417.499 753.973 417.168 763.666C413.306 763.846 409.462 764.02 405.604 764.271C386.748 765.64 368.803 762.167 350.428 759.985C351.916 749.928 356.663 726.296 360.142 717.754Z"/><path fill="#CECDCD" d="M372.247 724.726C382.577 728.81 389.759 736.736 401.828 735.691C407.691 735.183 413.508 734.542 419.361 733.91C418.505 743.6 417.499 753.973 417.168 763.666C413.306 763.846 409.462 764.02 405.604 764.271C401.513 757.323 385.647 741.978 379.901 734.557C377.524 731.488 374.126 728.316 372.247 724.726Z"/><path fill="#3C3938" d="M379.099 361.203C380.738 357.665 405.116 335.373 409.532 331.239C413.555 334.367 420.855 338.087 425.524 340.612L430.322 343.208C432.319 344.385 434.131 345.457 436.069 346.739C433.925 350.581 432.447 353.928 430.501 357.827C427.747 363.346 424.3 368.896 421.811 374.52C417.589 375.666 412.076 377.261 407.87 378.085C400.15 379.597 394.924 379.519 387.504 382.535C386.742 379.467 386.438 378.515 385.138 375.642C384.231 372.721 380.486 363.95 379.099 361.203Z"/><path fill="#272423" d="M430.322 343.208C432.319 344.385 434.131 345.457 436.069 346.739C433.925 350.581 432.447 353.928 430.501 357.827C427.747 363.346 424.3 368.896 421.811 374.52C417.589 375.666 412.076 377.261 407.87 378.085C400.15 379.597 394.924 379.519 387.504 382.535C386.742 379.467 386.438 378.515 385.138 375.642C394.77 366.743 413.618 370.035 421.86 357.079C424.564 352.829 428.545 347.855 430.322 343.208Z"/><path fill="#5E564A" d="M379.099 361.203C380.738 357.665 405.116 335.373 409.532 331.239C413.555 334.367 420.855 338.087 425.524 340.612C422.396 342.413 414.735 341.856 410.366 344.301C406.571 346.425 403.313 348.539 399.641 350.802C393.359 354.673 386.869 363.646 379.099 361.203Z"/><path fill="#C16689" d="M310.974 706.222L317.481 707.432C322.052 708.522 326.019 709.294 330.652 710.104L336.885 711.022C342.599 712.23 347.255 713.045 352.395 715.835C350.781 728.46 349.071 738.824 346.655 751.374C341.612 751.006 335.1 750.597 330.189 749.757C328.195 749.497 325.212 748.835 323.154 748.45L311.384 745.825C309.049 744.985 306.27 744.493 303.816 743.967C304.439 742.664 304.373 739.212 304.507 737.516C305.297 727.544 307.935 715.779 310.974 706.222Z"/><path fill="#C16689" d="M310.974 706.222L317.481 707.432C322.052 708.522 326.019 709.294 330.652 710.104C324.843 723.647 323.082 733.948 323.154 748.45L311.384 745.825C309.049 744.985 306.27 744.493 303.816 743.967C304.439 742.664 304.373 739.212 304.507 737.516C305.297 727.544 307.935 715.779 310.974 706.222Z"/><path fill="#893B58" d="M310.974 706.222L317.481 707.432C314.044 721.47 310.828 731.143 311.384 745.825C309.049 744.985 306.27 744.493 303.816 743.967C304.439 742.664 304.373 739.212 304.507 737.516C305.297 727.544 307.935 715.779 310.974 706.222Z"/><path fill="#893B58" d="M330.652 710.104L336.885 711.022C335.55 713.817 335.415 715.891 334.527 718.651C330.942 729.788 329.85 738.14 330.189 749.757C328.195 749.497 325.212 748.835 323.154 748.45C323.082 733.948 324.843 723.647 330.652 710.104Z"/><path fill="#C16689" d="M266.765 692.831C269.221 694.197 271.877 695.553 274.372 696.878C276.515 697.605 277.918 698.176 280.172 698.462C284.001 699.658 287.995 701.013 291.92 701.747L297.624 703.147C302.226 704.367 306.305 705.264 310.974 706.222C307.935 715.779 305.297 727.544 304.507 737.516C304.373 739.212 304.439 742.664 303.816 743.967L295.338 741.726C292.732 741.15 290.066 740.433 287.473 739.775C283.954 738.601 280.397 737.687 276.816 736.723L270.384 734.402C268.554 733.4 265.326 732.132 263.318 731.271C262.477 720.64 265.113 703.281 266.765 692.831Z"/><path fill="#C16689" d="M291.92 701.747L297.624 703.147C302.226 704.367 306.305 705.264 310.974 706.222C307.935 715.779 305.297 727.544 304.507 737.516C304.373 739.212 304.439 742.664 303.816 743.967L295.338 741.726C292.732 741.15 290.066 740.433 287.473 739.775C288.25 738.198 287.795 733.034 287.794 731.051C287.788 720.914 288.064 711.233 291.92 701.747Z"/><path fill="#893B58" d="M291.92 701.747L297.624 703.147C296.641 711.086 292.226 734.205 295.338 741.726C292.732 741.15 290.066 740.433 287.473 739.775C288.25 738.198 287.795 733.034 287.794 731.051C287.788 720.914 288.064 711.233 291.92 701.747Z"/><path fill="#C16689" d="M266.765 692.831C269.221 694.197 271.877 695.553 274.372 696.878C270.765 706.77 270.528 723.623 270.384 734.402C268.554 733.4 265.326 732.132 263.318 731.271C262.477 720.64 265.113 703.281 266.765 692.831Z"/><path fill="#893B58" d="M274.372 696.878C276.515 697.605 277.918 698.176 280.172 698.462C278.629 708.537 277.618 718.434 277.458 728.629C277.416 731.285 277.535 734.176 276.816 736.723L270.384 734.402C270.528 723.623 270.765 706.77 274.372 696.878Z"/><path fill="#FEFEFE" d="M416.38 594.089C441.409 598.833 464.987 602.434 490.585 602.236C495.602 601.944 496.487 601.389 500.426 604.322C503.036 606.274 506.423 608.428 509.174 610.281C507.125 617.909 505.227 625.377 502.584 632.824C495.243 626.831 472.725 613.091 464.215 609.059C457.974 614.242 448.541 624.351 442.824 630.469C435.462 621.57 421.51 603.696 416.38 594.089Z"/><path fill="#272423" d="M283.545 655.136C293.601 654.812 319.774 660.337 329.388 663.973C329.797 671.738 331.077 680.045 333.845 687.337C329.574 686.82 325.78 686.326 321.551 685.566C310.997 683.392 291.189 682.983 279.94 682.567C278.346 682.508 271.741 683.681 269.84 684.027C272.537 672.32 270.439 657.481 283.545 655.136Z"/><path fill="#E5BD9A" d="M616.508 560.629C620.579 560.692 623.254 560.977 627.318 561.479C630.675 563.611 633.653 566.392 636.291 569.359C631.675 575.884 627.151 581.308 621.938 587.382C618.169 591.773 610.931 604.289 606.636 606.986L603.73 611.628C599.682 607.076 594.055 600.922 590.835 595.999C594.697 574.927 601.684 574.161 616.508 560.629Z"/><path fill="#BD966F" d="M627.318 561.479C630.675 563.611 633.653 566.392 636.291 569.359C631.675 575.884 627.151 581.308 621.938 587.382C618.169 591.773 610.931 604.289 606.636 606.986C607.996 603.089 610.316 600.721 612.456 597.214C617.388 589.133 625.461 578.927 627.52 569.694C627.798 568.45 627.412 562.935 627.318 561.479Z"/><path fill="#AE4747" d="M504.995 601.378C510.203 600.959 515.186 600.349 520.338 599.879C527.702 605.332 536.306 612.014 543.862 616.947C555.316 626.736 571.061 639.73 582.965 648.772C580.062 650.301 576.746 651.814 573.762 653.25C557.28 642.862 533.646 623.532 517.596 611.415C513.225 608.317 509.247 604.392 504.995 601.378Z"/><path fill="#7A201F" d="M504.995 601.378C510.203 600.959 515.186 600.349 520.338 599.879C527.702 605.332 536.306 612.014 543.862 616.947C540.01 615.839 533.691 616.19 529.305 614.508C527.177 613.693 519.149 610.663 517.596 611.415C513.225 608.317 509.247 604.392 504.995 601.378Z"/><path fill="#3C3938" d="M358.928 767.881C368.623 769.12 376.276 769.055 385.947 769.088C382.084 786.935 384.622 788.397 371.9 802.103C367.123 807.123 363.127 810.735 357.652 814.963C357.705 807.473 357.458 772.732 358.928 767.881Z"/><path fill="#FEFEFE" d="M353.501 577.485L359.732 577.49C359.921 585.56 359.766 588.658 357.01 596.266C353.041 596.82 350.17 597.211 346.304 598.194C341.175 604.676 338.031 612.32 334.363 619.792C330.167 620.069 324.977 621.017 320.746 621.673L315.099 622.388C319.207 614.087 324.405 600.354 329.921 593.615C332.685 590.238 349.2 579.813 353.501 577.485Z"/><path fill="#CECDCD" d="M727.065 722.111L732.996 719.161C732.071 722.834 731.821 724.271 730.012 727.663C725.345 731.056 716.118 735.581 710.788 738.662C694.222 748.238 677.724 756.396 660.513 764.683C648.021 770.698 633.741 779.78 620.837 785.047C618.693 786.11 615.741 788.303 613.773 786.773C613.341 784.381 613.617 783.638 615.354 782.108C628.338 774.661 641.64 767.45 655.033 760.762C679.41 748.588 703.313 735.475 727.065 722.111Z"/><path fill="#FEFEFE" d="M620.837 785.047C618.693 786.11 615.741 788.303 613.773 786.773C613.341 784.381 613.617 783.638 615.354 782.108C618.461 782.54 618.941 782.384 620.837 785.047Z"/><path fill="#FEFEFE" d="M727.065 722.111L732.996 719.161C732.071 722.834 731.821 724.271 730.012 727.663C729.018 726.277 727.868 723.724 727.065 722.111Z"/><path fill="#3C3938" d="M870.365 776.142L871.286 776.831C884.436 799.561 910.672 845.805 933.72 857.389C929.722 857.399 925.273 857.508 921.313 857.368C901.762 844.333 887.784 823.449 876.577 802.995C873.122 796.688 870.276 788.007 867.045 781.53L866.612 780.109C867.439 778.765 869.163 777.282 870.365 776.142Z"/><path fill="#272423" d="M870.365 776.142L871.286 776.831C870.274 777.924 867.806 780.446 867.045 781.53L866.612 780.109C867.439 778.765 869.163 777.282 870.365 776.142Z"/><path fill="#3C3938" d="M556.701 873.499C558.671 873.526 566.625 877.303 568.917 878.351C532.282 885.814 485.576 891.337 448.035 890.332L434.57 890.056L438.123 885.163C463.627 884.802 489.776 883.414 515.095 880.096C528.542 878.334 542.975 875.532 556.701 873.499Z"/><path fill="#C16689" d="M274.424 686.787C277.14 686.757 280.181 687.183 282.956 687.256C300.587 687.724 318.512 689.718 335.719 693.84C336.978 696.717 339.221 702.95 339.94 705.917L334.817 705.31C324.775 704.545 275.952 694.599 268.679 689.663L268.574 688.851C270.199 687.551 272.354 687.278 274.424 686.787Z"/><path fill="#CECDCD" d="M521.175 682.192C536.759 697.782 552.05 713.691 566.68 730.183C574.839 739.38 582.593 748.949 590.616 758.266C594.556 762.841 610.676 779.247 610.686 784.532C610.687 785.192 610.609 785.83 610.531 786.486C609.09 786.132 608.005 784.769 606.931 783.575L518.56 685.451L521.175 682.192Z"/><path fill="#272423" d="M932.885 706.658C933.814 707.783 935.289 714.295 935.737 716.032C922.12 730 908.118 743.808 892.447 755.479C887.173 759.407 881.897 763.468 876.695 767.495C875.544 765.462 874.271 763.423 873.057 761.422C894.179 747.155 914.649 724.077 932.885 706.658Z"/><path fill="#AE4747" d="M551.903 595.208L564.177 591.867C566.984 596.82 569.622 601.113 572.661 605.909C578.944 617.272 584.052 626.313 589.732 638.157L581.277 641.952C572.808 628.495 566.143 616.303 556.913 602.855C555.08 600.278 553.882 597.716 551.903 595.208Z"/><path fill="#7A201F" d="M551.903 595.208L564.177 591.867C566.984 596.82 569.622 601.113 572.661 605.909C565.456 607.535 562.379 602.607 556.913 602.855C555.08 600.278 553.882 597.716 551.903 595.208Z"/><path fill="#CECDCD" d="M574.881 602.392C579.571 603.356 584.943 604.594 589.485 606.044C594.004 607.02 594.71 608.258 597.881 611.554C598.495 616.982 598.226 622.661 598.12 628.141L598.5 631.221L598.73 632.824C597.322 634.345 594.811 635.891 592.691 635.461C587.602 627.132 580.042 611.715 574.881 602.392Z"/><path fill="#FEFEFE" d="M589.485 606.044C594.004 607.02 594.71 608.258 597.881 611.554C598.495 616.982 598.226 622.661 598.12 628.141L597.337 628.028C593.857 622.871 591.335 615.259 589.079 609.344C588.469 607.745 588.884 607.291 589.485 606.044Z"/><path fill="#FEFEFE" d="M592.691 635.461L592.955 634.3C594.384 632.827 596.579 632.076 598.5 631.221L598.73 632.824C597.322 634.345 594.811 635.891 592.691 635.461Z"/><path fill="#CECDCD" d="M546.572 596.01C547.639 596.179 553.538 604.65 554.651 606.159C553.215 610.942 552.498 614.376 551.536 619.307L542.435 611.742C537.336 607.429 531.866 603.365 526.553 599.305C535.044 598.044 537.497 598.26 546.572 596.01Z"/><path fill="#FEFEFE" d="M597.762 643.809C599.602 644.246 600.751 644.949 601.771 646.524C602.973 654.27 579.732 663.466 573.362 664.381C569.271 663.064 567.719 659.226 571.317 656.259C574.207 656.187 575.614 656.125 578.211 654.789C583.812 651.907 593.876 648.649 597.762 643.809Z"/><path fill="#CECDCD" d="M577.81 587.973L588.106 585.074C587.906 587.849 587.405 600.272 586.15 601.565L585.537 601.327C581.544 599.943 576.597 598.782 572.446 597.694C571.299 595.144 570.047 592.923 568.708 590.48C571.949 589.691 574.625 588.961 577.81 587.973Z"/><path fill="#FEFEFE" d="M577.81 587.973L588.106 585.074C587.906 587.849 587.405 600.272 586.15 601.565L585.537 601.327C582.985 596.745 580.552 592.463 577.81 587.973Z"/><path fill="#FEFEFE" d="M533.021 627.525C539.702 632.056 556.666 644.216 557.684 652.699L556.695 653.545L550.862 656.353C545.199 646.609 538.628 637.466 533.021 627.525Z"/><path fill="#7A201F" d="M329.458 629.903L331.192 629.819L331.811 630.739C331.82 633.89 331.854 637.038 330.251 639.811C316.926 635.764 312.811 636.035 299.127 634.435C297.126 634.262 291.352 633.918 289.836 633.285C303.374 632.216 315.527 630.751 329.458 629.903Z"/><path fill="#CECDCD" d="M557.049 609.957C559.158 611.913 573.995 635.319 574.508 637.636L573.531 637.159L553.797 621.086C554.834 616.967 555.616 613.932 557.049 609.957Z"/><path fill="#3C3938" d="M864.42 763.694L865.371 762.982L866.782 764.163L867.745 764.058C871.717 767.028 874.501 769.181 870.38 773.571C870.456 774.788 870.556 774.963 870.365 776.142C869.163 777.282 867.439 778.765 866.612 780.109C865.352 778.921 860.225 772.067 857.899 769.532C860.488 768.053 862.792 766.581 865.298 764.973L864.42 763.694Z"/><defs><linearGradient id="gradient_1" gradientUnits="userSpaceOnUse" x1="867.34332" y1="768.31506" x2="870.23218" y2="766.59332"><stop offset="0" stop-color="black"/><stop offset="1" stop-color="#2D2A27"/></linearGradient></defs><path fill="url(#gradient_1)" d="M864.42 763.694L865.371 762.982L866.782 764.163L867.745 764.058C871.717 767.028 874.501 769.181 870.38 773.571L865.298 764.973L864.42 763.694Z"/><path fill="#272423" d="M758.828 866.393C761.699 867.481 767.024 873.631 768.583 876.358C766.85 876.01 765.082 875.594 763.353 875.21C761.752 872.274 760.139 869.471 758.828 866.393Z"/><path fill="#FEFEFE" d="M555.314 644.261C557.247 645.383 562.709 648.666 563.018 650.764C561.698 651.368 561.277 651.759 559.878 651.529C557.733 649.9 556.583 646.796 555.314 644.261Z"/><path fill="#FEFEFE" d="M518.56 685.451C517.115 683.759 515.562 681.287 517.279 679.338C519.337 679.744 519.347 680.389 521.175 682.192L518.56 685.451Z"/><path fill="#272423" d="M514.449 360.55C512.713 358.878 509.341 353.808 508.349 351.585L508.727 351.441C510.435 352.82 512.052 353.805 513.698 355.077C513.117 356.681 513.967 358.782 514.449 360.55Z"/><path fill="#CECDCD" d="M595.392 641.326C591.465 642.564 589.09 644.393 584.564 645.538L584.644 645.152C587.811 642.84 590.93 641.781 594.558 640.314L595.392 641.326Z"/><path fill="#272423" d="M673.632 470.125C675.556 471.671 674.468 471.172 677.114 471.441L677.268 472.174L676.442 473.145L674.695 474.613L673.835 474.423C673.885 473.061 673.925 472.423 673.756 471.064L673.632 470.125Z"/></svg>